<?xml version="1.0" standalone="no"?>
<!DOCTYPE svg PUBLIC "-//W3C//DTD SVG 20010904//EN"
 "http://www.w3.org/TR/2001/REC-SVG-20010904/DTD/svg10.dtd">
<svg version="1.0" xmlns="http://www.w3.org/2000/svg"
 width="2160.000000pt" height="2160.000000pt" viewBox="0 0 2160.000000 2160.000000"
 preserveAspectRatio="xMidYMid meet">
<metadata>
Created by potrace 1.16, written by Peter Selinger 2001-2019
</metadata>
<g transform="translate(0.000000,2160.000000) scale(0.100000,-0.100000)"
fill="#000000" stroke="none">
<path d="M19083 20320 c-18 -4 -39 -13 -47 -19 -7 -6 -35 -16 -62 -22 -27 -5
-65 -14 -85 -18 -48 -10 -170 -71 -164 -81 3 -4 21 -11 40 -14 19 -4 35 -11
35 -15 0 -13 -59 -22 -78 -12 -35 17 -85 21 -106 8 -12 -8 -37 -16 -56 -19
-20 -4 -59 -19 -86 -36 -28 -16 -62 -33 -75 -37 -42 -13 -110 -57 -106 -69 5
-15 77 -8 97 8 8 7 28 17 45 20 16 4 32 12 35 17 3 5 20 12 38 15 39 8 44 -11
7 -28 -14 -6 -25 -16 -25 -22 0 -13 -78 -56 -100 -56 -8 0 -32 -9 -53 -20 -65
-35 -114 -19 -71 24 14 15 13 16 -10 16 -14 0 -26 -4 -26 -10 0 -5 -6 -10 -14
-10 -21 0 -34 -23 -26 -44 5 -14 -1 -26 -19 -42 l-26 -22 27 -11 c22 -8 39 -5
87 14 33 14 67 25 75 25 15 0 103 47 111 60 6 10 109 60 124 60 12 0 81 40 99
57 7 7 23 13 35 13 12 0 37 9 55 20 18 11 43 20 57 20 40 0 75 18 75 38 0 19
65 72 87 72 6 0 16 7 23 15 7 8 21 15 32 15 11 0 32 6 46 14 15 8 46 19 68 26
57 17 68 25 61 44 -7 17 -65 20 -124 6z"/>
<path d="M17940 20094 c-54 -17 -98 -51 -128 -98 -54 -84 -55 -87 -98 -130
-22 -22 -49 -54 -60 -71 -10 -16 -33 -49 -51 -73 -18 -24 -33 -49 -33 -56 0
-7 -16 -30 -36 -52 -19 -21 -42 -52 -50 -69 -25 -53 -83 -138 -98 -147 -9 -5
-16 -14 -16 -20 0 -7 -19 -34 -41 -61 -24 -28 -49 -72 -58 -103 -20 -64 -94
-144 -134 -144 -18 0 -28 -7 -35 -27 -5 -16 -13 -35 -17 -44 -4 -11 0 -18 15
-22 15 -4 30 4 53 28 18 18 46 37 62 41 27 6 124 99 148 140 4 8 14 14 22 14
14 0 97 78 150 140 40 48 55 78 54 109 0 25 -1 25 -9 4 -14 -35 -130 -143
-155 -143 -3 0 -5 9 -5 20 0 22 38 100 49 100 8 0 64 83 92 135 32 60 61 105
69 105 5 0 12 10 16 23 4 12 22 40 40 63 19 23 34 46 34 51 0 6 6 16 14 22 8
7 18 26 21 42 4 16 12 29 18 29 17 1 59 39 91 82 18 24 44 43 74 54 64 24 75
33 61 50 -11 14 -31 16 -59 8z"/>
<path d="M18953 20054 c-17 -7 -34 -18 -38 -24 -3 -5 -14 -10 -24 -10 -10 0
-30 -9 -44 -20 -14 -11 -35 -20 -47 -20 -13 0 -37 -8 -54 -19 -17 -10 -57 -28
-88 -40 -32 -12 -84 -32 -115 -44 -32 -12 -69 -29 -82 -39 -13 -10 -33 -18
-43 -18 -11 0 -32 -6 -46 -13 -79 -40 -119 -57 -132 -57 -8 0 -37 -11 -65 -25
-27 -13 -62 -25 -76 -25 -17 0 -33 -9 -43 -25 -12 -19 -25 -25 -51 -25 -19 0
-35 -3 -35 -8 0 -18 217 17 267 43 15 8 33 15 40 15 6 0 24 7 40 15 57 29 142
65 155 65 8 0 22 6 33 13 11 7 54 26 95 42 41 16 82 35 91 42 8 7 22 13 30 13
9 0 54 19 101 43 47 23 104 51 127 61 53 25 64 38 48 58 -10 14 -16 14 -44 2z"/>
<path d="M18060 19984 c-19 -14 -46 -44 -60 -68 -14 -24 -33 -54 -43 -67 -10
-13 -33 -47 -50 -75 -18 -27 -46 -68 -63 -90 -87 -112 -97 -181 -14 -94 28 29
50 54 50 56 0 2 7 12 15 22 39 43 65 81 65 92 0 7 16 30 35 51 19 22 35 48 35
59 0 11 3 20 8 20 12 1 112 97 112 109 0 19 -54 10 -90 -15z"/>
<path d="M16777 19903 c-16 -15 -4 -21 54 -27 l61 -7 -4 -37 c-3 -20 -2 -46 2
-57 10 -27 2 -45 -20 -45 -20 0 -32 -33 -24 -67 4 -14 14 -23 25 -23 15 0 19
7 19 35 0 28 4 35 20 35 15 0 20 7 20 25 0 18 5 25 20 25 11 0 20 6 20 13 0
29 -13 57 -26 57 -8 0 -14 4 -14 8 0 5 -13 23 -28 40 -24 27 -36 32 -74 32
-24 0 -48 -3 -51 -7z"/>
<path d="M17479 19873 c-13 -21 -37 -63 -54 -94 -16 -31 -48 -83 -69 -115 -21
-33 -45 -74 -53 -92 -7 -18 -23 -42 -34 -55 -11 -12 -26 -29 -34 -38 -8 -9
-15 -21 -15 -27 0 -6 -13 -26 -29 -44 -16 -18 -34 -53 -42 -78 -7 -25 -27 -66
-46 -93 -18 -26 -33 -50 -33 -55 0 -4 -18 -33 -40 -65 -22 -31 -40 -66 -40
-76 0 -10 -11 -26 -24 -34 -12 -9 -31 -32 -40 -51 -9 -20 -23 -36 -31 -36 -8
0 -15 -7 -15 -15 0 -11 12 -8 53 13 58 30 71 42 92 90 8 19 28 54 45 78 16 25
30 47 30 50 0 3 9 17 20 31 11 14 20 32 20 39 0 13 38 76 63 104 7 8 19 30 26
48 8 17 17 32 20 32 11 0 51 75 51 95 0 9 16 33 35 52 19 19 35 41 35 48 0 7
8 23 19 36 10 13 22 35 26 48 4 14 11 29 16 35 45 54 101 169 93 190 -9 24
-20 20 -45 -21z"/>
<path d="M18873 19702 c-12 -2 -27 -10 -33 -18 -7 -8 -30 -14 -51 -14 -22 0
-60 -11 -86 -24 -27 -13 -66 -30 -88 -36 -22 -7 -52 -25 -67 -41 -15 -16 -35
-29 -45 -29 -26 0 -104 -43 -100 -55 7 -20 49 -17 73 6 18 17 35 22 60 21 20
-2 47 4 60 13 13 8 34 15 47 15 14 0 35 8 48 19 13 10 40 22 59 26 19 4 42 13
50 20 8 7 31 16 50 20 79 16 101 90 23 77z"/>
<path d="M17943 19470 c-13 -5 -23 -14 -23 -19 0 -6 -11 -16 -24 -23 -13 -7
-50 -31 -81 -53 -32 -22 -65 -45 -74 -50 -211 -137 -358 -248 -431 -325 -19
-21 -45 -40 -57 -44 -13 -4 -23 -14 -23 -22 0 -8 -9 -14 -20 -14 -12 0 -20 -7
-20 -16 0 -9 -9 -18 -20 -21 -11 -3 -20 -12 -20 -19 0 -8 -7 -17 -15 -20 -8
-4 -15 -17 -15 -30 0 -17 -6 -24 -20 -24 -13 0 -20 -7 -20 -20 0 -11 -7 -20
-15 -20 -8 0 -15 -9 -15 -20 0 -12 7 -20 16 -20 9 0 18 9 21 20 3 11 13 20 23
20 10 0 20 9 23 20 3 11 12 20 20 20 8 0 17 7 21 15 3 8 17 15 32 15 25 0 74
39 74 59 0 10 37 40 131 106 72 51 110 82 233 190 37 33 80 70 95 82 14 13 46
41 71 63 100 90 126 109 153 114 20 4 28 11 25 23 -4 21 -17 24 -45 13z"/>
<path d="M18700 19423 c-19 -9 -60 -27 -90 -41 -30 -13 -68 -30 -85 -38 -16
-8 -46 -17 -65 -21 -19 -3 -46 -14 -59 -25 -13 -10 -34 -18 -47 -18 -13 0 -41
-9 -61 -20 -21 -11 -51 -20 -68 -20 -33 0 -95 -50 -95 -77 0 -13 -3 -13 -15
-3 -18 15 -116 5 -156 -16 -15 -7 -46 -16 -70 -20 -24 -4 -56 -13 -71 -20 -15
-8 -44 -14 -64 -14 -21 0 -56 -9 -78 -19 -23 -10 -59 -25 -81 -32 -38 -12 -39
-13 -17 -22 16 -7 41 -7 80 1 96 19 180 39 194 48 7 5 42 11 77 15 35 4 67 12
71 19 4 6 27 14 51 17 24 3 52 10 62 15 13 6 25 3 44 -11 37 -30 50 -26 56 15
7 44 23 64 51 64 11 1 39 9 61 20 22 11 54 19 72 20 17 0 35 4 38 10 3 5 25
14 48 20 23 6 56 17 72 25 17 8 59 25 95 39 59 23 116 49 147 69 7 4 10 14 6
22 -7 20 -58 18 -103 -2z"/>
<path d="M16450 19185 c-6 -19 -15 -35 -20 -35 -5 0 -14 -17 -20 -37 -7 -21
-21 -56 -31 -79 -10 -22 -19 -47 -19 -55 0 -8 -7 -23 -15 -33 -8 -11 -15 -31
-15 -45 0 -14 -9 -39 -20 -56 -11 -16 -20 -44 -20 -61 0 -16 -7 -39 -15 -50
-8 -10 -15 -28 -15 -40 0 -11 -9 -29 -20 -39 -15 -13 -20 -31 -20 -65 0 -33
-6 -54 -20 -70 -13 -15 -20 -37 -20 -67 0 -30 -4 -43 -14 -43 -14 0 -31 -45
-22 -59 3 -5 17 -6 32 -3 22 4 25 9 21 31 -4 16 4 50 19 86 13 33 24 69 24 80
0 11 9 37 20 58 11 20 20 45 20 55 0 11 9 27 19 36 11 10 23 32 26 50 4 17 13
40 19 51 7 11 19 37 26 58 7 22 18 51 26 65 8 15 14 39 14 53 0 15 7 32 15 39
8 7 17 28 20 49 4 20 13 48 21 63 16 29 19 84 5 93 -5 3 -15 -11 -21 -30z"/>
<path d="M18030 19065 c-7 -8 -27 -15 -44 -15 -17 0 -44 -7 -60 -15 -16 -9
-64 -27 -105 -40 -42 -14 -89 -30 -106 -36 -16 -6 -52 -17 -80 -24 -27 -7 -67
-20 -87 -29 -21 -9 -48 -16 -61 -16 -26 0 -101 -53 -90 -64 12 -12 78 -5 97 9
11 8 38 15 61 15 22 0 49 6 60 14 11 7 40 17 65 21 25 4 56 16 69 26 13 11 34
19 46 19 12 0 28 7 35 15 7 8 24 15 39 15 14 0 41 9 59 20 17 11 50 23 72 26
21 4 47 15 56 25 9 11 23 19 31 19 7 0 13 7 13 15 0 10 -10 15 -29 15 -16 0
-34 -7 -41 -15z"/>
<path d="M16550 18934 c-11 -25 -20 -63 -20 -84 0 -21 -6 -43 -14 -50 -8 -6
-20 -28 -27 -48 -6 -20 -16 -42 -20 -48 -5 -6 -12 -45 -15 -87 -7 -72 -9 -78
-40 -99 -18 -13 -35 -33 -39 -45 -3 -13 -18 -27 -40 -34 -19 -7 -35 -16 -35
-20 0 -13 -54 -69 -67 -69 -7 0 -19 -16 -28 -36 -8 -20 -24 -38 -35 -41 -11
-3 -20 -9 -20 -14 0 -13 -135 -149 -147 -149 -6 0 -13 -8 -16 -19 -2 -10 -17
-21 -32 -25 -15 -4 -42 -22 -60 -41 -18 -19 -37 -35 -43 -35 -6 0 -14 -9 -17
-20 -3 -11 -10 -20 -15 -20 -5 0 -21 -11 -35 -25 -14 -14 -25 -30 -25 -35 0
-5 -9 -12 -20 -15 -11 -3 -20 -11 -20 -16 0 -21 41 4 95 57 31 30 60 54 65 54
6 0 10 7 10 15 0 9 11 20 25 25 14 5 25 14 25 19 0 5 13 14 30 21 16 7 44 27
62 46 18 19 39 34 46 34 6 0 12 6 13 13 0 6 14 23 30 37 16 14 47 42 68 63 22
20 47 37 55 37 9 0 16 5 16 10 0 6 12 16 27 23 43 19 71 50 75 82 2 23 10 31
36 39 17 5 32 15 32 23 0 7 8 17 17 20 10 4 41 31 70 60 28 29 56 53 61 53 6
0 13 8 16 18 3 9 22 28 41 41 40 27 48 56 13 46 -13 -4 -29 -15 -37 -26 -7
-10 -19 -19 -26 -19 -7 0 -19 -10 -28 -22 -21 -31 -38 -13 -44 45 -5 37 -2 48
16 63 16 14 21 30 21 63 0 31 6 51 20 66 11 12 23 42 26 68 6 40 4 47 -10 47
-10 0 -24 -18 -36 -46z"/>
<path d="M15455 18930 c-18 -20 -18 -20 3 -20 11 0 24 -5 28 -11 8 -14 7 -506
-2 -520 -3 -5 -7 -38 -9 -72 -2 -34 -10 -75 -19 -92 -9 -16 -16 -40 -16 -51 0
-12 -7 -27 -15 -34 -8 -7 -17 -28 -21 -49 -4 -20 -12 -43 -19 -51 -7 -8 -16
-31 -20 -50 -4 -19 -16 -43 -26 -53 -11 -10 -19 -28 -19 -41 0 -13 -7 -29 -15
-36 -7 -6 -17 -33 -21 -58 -3 -26 -12 -54 -19 -62 -8 -8 -17 -44 -21 -80 -3
-36 -13 -72 -21 -82 -11 -13 -13 -33 -8 -95 6 -66 5 -81 -9 -92 -13 -11 -19
-11 -31 -1 -12 10 -14 28 -9 94 4 44 12 90 19 101 6 11 15 54 18 96 4 41 14
104 23 138 11 44 14 78 8 110 -4 28 -9 38 -12 26 -2 -11 -15 -53 -28 -94 -15
-46 -24 -97 -24 -138 0 -37 -6 -76 -15 -93 -8 -16 -18 -67 -21 -114 -4 -53
-12 -90 -20 -97 -8 -7 -14 -31 -14 -55 0 -33 -5 -46 -20 -54 -11 -6 -20 -17
-20 -25 0 -8 -6 -18 -13 -22 -7 -4 -20 -20 -30 -35 -11 -17 -26 -28 -40 -28
-29 0 -66 -49 -74 -96 -3 -19 -11 -34 -19 -34 -8 0 -14 -5 -14 -11 0 -14 80
31 94 54 6 9 16 17 23 17 7 0 13 7 13 15 0 9 8 18 18 22 22 8 62 44 62 56 0 5
42 50 93 100 52 51 97 100 100 110 4 9 13 17 21 17 7 0 16 7 20 15 3 8 12 15
20 15 7 0 16 9 19 20 3 11 12 20 21 20 9 0 16 6 16 14 0 8 8 17 18 21 9 3 28
21 42 40 14 19 30 35 37 35 6 0 15 9 18 20 3 11 11 20 16 20 11 0 179 163 179
173 0 4 -9 7 -21 7 -23 0 -79 -48 -79 -67 0 -7 -6 -13 -13 -13 -13 0 -66 -54
-93 -95 -9 -14 -22 -25 -29 -25 -7 0 -15 -9 -18 -20 -3 -11 -12 -20 -20 -20
-8 0 -17 -9 -20 -20 -3 -11 -12 -20 -21 -20 -9 0 -16 -5 -16 -10 0 -6 -14 -23
-31 -38 -17 -15 -40 -37 -52 -49 -15 -17 -24 -20 -34 -12 -17 15 -17 73 1 89
8 6 20 37 26 68 6 31 17 69 25 84 8 14 15 34 15 45 0 10 9 35 20 56 11 20 20
45 20 55 0 9 9 34 20 55 11 20 20 51 20 68 0 17 9 42 20 56 11 14 20 38 20 53
0 15 6 33 14 39 8 7 18 25 21 41 7 33 75 106 108 116 12 3 30 15 40 25 10 11
22 19 27 19 6 0 10 5 10 10 0 18 -45 11 -63 -10 -37 -44 -89 -14 -69 41 5 13
6 150 3 304 l-6 280 -26 3 c-15 2 -32 -5 -44 -18z"/>
<path d="M18270 18871 c-8 -5 -46 -12 -83 -16 -37 -4 -80 -13 -95 -21 -15 -8
-37 -14 -50 -14 -12 0 -39 -7 -58 -15 -19 -8 -59 -17 -87 -21 -29 -4 -59 -13
-67 -20 -15 -13 -104 -37 -200 -53 -25 -5 -65 -18 -90 -29 -27 -13 -65 -22
-96 -22 -33 0 -56 -5 -64 -15 -7 -9 -29 -15 -54 -15 -45 0 -86 -22 -86 -46 0
-11 -7 -13 -27 -8 -53 13 -58 55 -12 98 33 31 53 72 43 87 -7 11 -64 -41 -64
-58 0 -7 -4 -13 -9 -13 -5 0 -19 -20 -31 -44 -11 -25 -63 -88 -115 -140 -52
-52 -97 -107 -101 -122 -4 -15 -24 -43 -45 -63 -39 -39 -52 -71 -32 -78 7 -2
20 5 30 16 9 12 27 21 38 21 31 0 45 13 35 30 -16 25 -12 80 5 80 8 0 15 4 15
9 0 5 16 24 35 43 20 18 49 45 64 60 16 15 31 33 33 40 3 7 39 15 94 20 153
13 228 25 259 42 17 9 50 16 75 16 25 0 54 7 64 15 11 8 38 15 61 15 22 0 57
9 78 20 20 11 49 20 64 20 16 0 55 9 88 19 33 11 92 29 130 40 39 11 97 29
130 40 33 10 76 22 95 26 19 4 46 16 59 26 13 11 34 19 47 19 12 0 26 5 29 10
8 12 -83 13 -105 1z"/>
<path d="M18858 18834 c-5 -4 -8 -18 -8 -30 0 -13 -9 -28 -20 -34 -15 -8 -20
-21 -20 -49 0 -25 -7 -44 -20 -56 -13 -12 -20 -31 -20 -57 0 -21 -4 -38 -10
-38 -5 0 -17 -15 -26 -32 -9 -18 -22 -36 -29 -40 -7 -4 -10 -19 -7 -34 3 -16
-3 -35 -15 -52 -11 -15 -23 -37 -27 -49 -4 -12 -13 -27 -21 -33 -8 -7 -15 -20
-15 -30 0 -9 -9 -27 -20 -40 -11 -13 -20 -28 -20 -34 0 -6 -9 -28 -20 -49 -21
-38 -27 -87 -11 -87 11 0 21 25 21 51 0 11 6 22 14 25 8 3 18 19 21 36 4 16
13 32 20 34 7 3 16 20 19 39 4 18 13 36 21 39 8 3 15 14 15 24 0 11 9 31 20
45 11 14 20 37 20 51 0 15 8 30 20 36 11 6 20 16 20 23 1 7 9 30 20 52 11 22
19 44 20 48 0 5 9 20 20 34 11 14 20 34 20 45 0 10 7 33 16 49 15 30 17 129 2
113z"/>
<path d="M15273 18770 c-3 -11 -14 -20 -24 -20 -11 0 -19 -7 -19 -15 0 -8 -7
-15 -16 -15 -9 0 -18 -9 -21 -20 -3 -11 -12 -20 -19 -20 -8 0 -17 -7 -21 -16
-3 -9 -16 -26 -28 -39 -13 -12 -30 -25 -39 -28 -9 -4 -16 -13 -16 -21 0 -7 -9
-16 -20 -19 -11 -3 -20 -12 -20 -21 0 -9 -7 -16 -15 -16 -8 0 -15 -9 -15 -20
0 -13 -7 -20 -20 -20 -13 0 -20 -7 -20 -20 0 -13 -7 -20 -20 -20 -11 0 -20 -7
-20 -15 0 -8 -7 -15 -15 -15 -9 0 -20 -12 -25 -26 -6 -14 -14 -23 -19 -19 -5
3 -12 -4 -16 -15 -6 -17 -16 -24 -35 -22 -3 0 -7 -8 -7 -19 -1 -13 5 -19 18
-19 12 0 19 7 19 20 0 13 7 20 19 20 10 0 21 9 24 20 3 11 12 20 21 20 9 0 16
8 16 20 0 13 7 20 20 20 11 0 20 7 20 15 0 8 9 15 20 15 13 0 20 7 20 20 0 11
7 20 15 20 8 0 15 9 15 20 0 13 7 20 20 20 13 0 20 7 20 20 0 13 7 20 20 20
13 0 20 7 20 20 0 13 7 20 20 20 13 0 20 7 20 20 0 13 7 20 20 20 11 0 20 6
20 14 0 8 9 18 20 21 11 3 20 13 20 22 0 8 9 17 20 20 11 3 20 12 20 19 0 8 7
14 15 14 8 0 15 9 15 20 0 11 -5 20 -11 20 -6 0 -13 -9 -16 -20z"/>
<path d="M16960 18705 c0 -8 -7 -15 -15 -15 -9 0 -20 -11 -25 -25 -5 -14 -16
-25 -25 -25 -8 0 -15 -7 -15 -15 0 -25 -60 -79 -73 -66 -17 17 -34 13 -40 -9
-3 -11 -12 -20 -20 -20 -9 0 -19 -9 -22 -20 -3 -11 -13 -20 -21 -20 -8 0 -14
-9 -14 -20 0 -13 7 -20 20 -20 13 0 20 7 20 20 0 14 6 20 23 19 16 -1 18 -2 5
-6 -10 -2 -18 -13 -18 -24 0 -12 -7 -19 -20 -19 -11 0 -20 -7 -20 -15 0 -8 -7
-15 -16 -15 -9 0 -18 -9 -21 -20 -6 -22 -38 -27 -46 -7 -3 6 -3 -3 0 -20 5
-29 3 -33 -16 -33 -16 0 -21 6 -21 24 0 27 -25 30 -44 5 -6 -9 -19 -18 -28
-22 -10 -3 -18 -13 -18 -22 0 -8 -7 -15 -16 -15 -9 0 -18 -9 -21 -20 -3 -11
-11 -20 -18 -20 -7 0 -15 -11 -17 -24 -4 -19 -1 -23 11 -19 9 3 21 11 26 18 6
6 18 14 28 18 9 3 17 13 17 22 0 8 9 15 20 15 13 0 20 7 20 20 0 13 7 20 20
20 13 0 20 -7 20 -19 0 -10 -9 -21 -20 -24 -11 -3 -20 -12 -20 -21 0 -9 -8
-16 -20 -16 -13 0 -20 -7 -20 -20 0 -11 -7 -20 -15 -20 -8 0 -15 -9 -15 -20 0
-13 -7 -20 -20 -20 -13 0 -20 -7 -20 -20 0 -23 -3 -24 -30 -8 -22 14 -39 3
-22 -14 17 -17 15 -25 -8 -31 -11 -3 -20 -12 -20 -20 0 -8 -9 -17 -20 -20 -12
-3 -20 -14 -20 -25 0 -11 -7 -22 -15 -26 -8 -3 -15 -10 -15 -16 0 -5 7 -10 15
-10 8 0 15 7 15 15 0 9 9 15 21 15 12 0 23 8 26 20 3 11 12 20 20 20 8 0 17 9
20 20 3 11 12 20 19 20 8 0 14 7 14 15 0 9 8 19 18 22 20 8 62 50 62 63 0 5 9
12 20 15 11 3 20 12 20 20 0 7 9 15 20 18 11 3 20 12 20 20 0 8 9 17 20 20 11
3 20 12 20 21 0 9 7 16 16 16 9 0 18 9 21 20 3 11 11 20 18 20 8 0 17 9 20 20
3 11 10 20 15 20 12 0 60 48 60 60 0 5 9 12 20 15 11 3 20 13 20 21 0 8 7 14
16 14 9 0 18 9 21 20 3 11 12 20 20 20 8 0 17 9 20 20 3 11 9 20 14 20 5 0 14
11 19 25 5 14 16 25 25 25 8 0 15 9 15 20 0 11 7 20 15 20 8 0 15 9 15 20 0
13 -7 20 -20 20 -11 0 -20 -7 -20 -15z"/>
<path d="M18240 18414 c-14 -7 -37 -14 -52 -14 -14 0 -40 -11 -56 -25 -21 -18
-42 -25 -70 -25 -22 0 -45 -6 -51 -13 -17 -21 28 -38 70 -27 124 33 154 38
183 33 28 -4 37 0 60 27 15 18 25 38 23 44 -5 16 -78 17 -107 0z"/>
<path d="M18326 18266 c-14 -24 -26 -48 -26 -53 0 -5 -9 -16 -20 -26 -11 -9
-20 -23 -20 -30 0 -7 -13 -23 -30 -35 -38 -29 -50 -74 -50 -198 0 -75 4 -105
14 -113 11 -9 16 -5 25 20 6 18 11 47 11 65 0 18 5 45 11 61 7 15 15 54 19 85
6 45 14 64 38 88 17 17 34 40 38 53 4 12 18 35 31 51 26 32 27 69 2 74 -11 2
-26 -13 -43 -42z"/>
<path d="M15140 18265 c-6 -14 -10 -36 -10 -47 0 -19 -24 -103 -51 -183 -6
-16 -15 -49 -20 -72 -4 -24 -16 -54 -25 -68 -9 -14 -19 -54 -22 -90 -4 -55 -2
-65 11 -65 10 0 19 11 23 28 3 15 14 56 25 91 10 35 19 75 19 89 0 13 9 35 20
49 11 14 20 39 20 54 0 16 9 46 20 66 14 26 20 57 20 100 0 67 -14 90 -30 48z"/>
<path d="M17450 18229 c-25 -5 -79 -14 -120 -19 -41 -6 -92 -20 -113 -30 -22
-12 -58 -20 -85 -20 -26 0 -56 -6 -67 -13 -11 -7 -51 -19 -90 -26 -38 -7 -88
-18 -110 -25 -22 -8 -68 -17 -102 -21 l-63 -7 0 31 c0 21 9 40 25 55 16 15 23
30 19 39 -5 15 -8 15 -30 1 -13 -9 -26 -26 -30 -37 -4 -12 -22 -40 -40 -63
-19 -23 -34 -46 -34 -51 0 -6 -18 -29 -40 -52 -22 -22 -40 -45 -40 -51 0 -5
-9 -14 -20 -20 -11 -6 -20 -17 -20 -25 0 -8 -6 -15 -12 -15 -12 -1 -67 -57
-124 -127 -14 -18 -30 -33 -36 -33 -11 0 -47 -40 -48 -52 0 -5 10 -8 21 -8 21
0 69 42 69 60 0 5 8 11 18 15 9 3 28 21 42 40 14 19 33 37 43 40 9 4 17 12 17
18 0 6 16 26 37 44 20 18 57 63 83 100 25 37 51 68 56 70 6 2 23 -8 38 -22 32
-29 52 -31 86 -8 15 10 39 16 66 14 32 -1 48 3 64 19 14 14 33 20 64 20 24 0
73 9 108 20 34 11 95 23 133 26 39 4 75 11 81 16 7 5 43 11 80 15 38 3 78 12
89 19 11 6 46 20 78 30 31 10 54 21 50 25 -14 12 -97 17 -143 8z"/>
<path d="M16333 18183 c-12 -2 -25 -13 -28 -24 -4 -10 -15 -19 -26 -19 -10 0
-19 -6 -19 -14 0 -7 -9 -16 -20 -19 -11 -3 -20 -12 -20 -20 0 -8 -9 -17 -20
-20 -11 -3 -20 -12 -20 -21 0 -9 -6 -16 -14 -16 -8 0 -18 -9 -21 -20 -3 -11
-13 -20 -21 -20 -8 0 -14 -7 -14 -15 0 -9 -7 -18 -16 -22 -20 -7 -64 -51 -64
-63 0 -5 -9 -12 -20 -15 -11 -3 -20 -11 -20 -16 0 -11 -60 -69 -71 -69 -5 0
-9 -7 -9 -15 0 -8 -6 -15 -14 -15 -7 0 -16 -9 -19 -20 -3 -11 -12 -20 -20 -20
-9 0 -19 -9 -22 -20 -3 -11 -13 -20 -21 -20 -8 0 -14 -9 -14 -20 0 -13 -7 -20
-19 -20 -10 0 -21 -9 -24 -20 -3 -11 -12 -20 -21 -20 -9 0 -16 -6 -16 -14 0
-8 -9 -18 -20 -21 -11 -3 -20 -12 -20 -20 0 -7 -9 -15 -20 -18 -11 -3 -20 -12
-20 -20 0 -9 -9 -19 -20 -22 -11 -3 -20 -13 -20 -21 0 -8 -6 -14 -14 -14 -7 0
-16 -9 -19 -20 -3 -11 -12 -20 -20 -20 -9 0 -19 -9 -22 -20 -3 -11 -12 -20
-20 -20 -7 0 -15 -9 -18 -20 -3 -11 -12 -20 -20 -20 -8 0 -17 -9 -20 -20 -3
-11 -12 -20 -20 -20 -8 0 -17 -9 -20 -20 -3 -11 -12 -20 -21 -20 -9 0 -16 -5
-16 -12 0 -14 -86 -98 -100 -98 -6 0 -10 -9 -10 -20 0 -13 -7 -20 -20 -20 -13
0 -20 -7 -20 -20 0 -13 -7 -20 -20 -20 -13 0 -20 -7 -20 -20 0 -13 -7 -20 -20
-20 -13 0 -20 -7 -20 -20 0 -11 -6 -20 -14 -20 -8 0 -18 -9 -21 -20 -3 -11
-13 -20 -21 -20 -8 0 -14 -9 -14 -20 0 -13 -7 -20 -20 -20 -13 0 -20 -7 -20
-20 0 -13 -7 -20 -20 -20 -13 0 -20 -7 -20 -20 0 -13 -7 -20 -19 -20 -12 0
-20 -9 -23 -23 -4 -20 -1 -23 19 -19 14 3 23 11 23 23 0 12 7 19 20 19 13 0
20 7 20 20 0 13 7 20 20 20 13 0 20 7 20 20 0 13 7 20 20 20 13 0 20 7 20 20
0 13 7 20 20 20 13 0 20 7 20 20 0 13 7 20 20 20 13 0 20 7 20 20 0 11 7 20
15 20 8 0 15 7 15 15 0 8 9 15 20 15 13 0 20 7 20 19 0 10 9 21 20 24 11 3 20
12 20 21 0 9 8 16 20 16 13 0 20 7 20 20 0 13 7 20 20 20 13 0 20 7 20 20 0
13 7 20 20 20 13 0 20 7 20 20 0 13 7 20 20 20 13 0 20 7 20 20 0 13 7 20 20
20 11 0 20 7 20 15 0 8 7 15 15 15 8 0 15 8 15 19 0 10 9 21 20 24 11 3 20 12
20 21 0 9 8 16 20 16 13 0 20 7 20 19 0 10 9 21 20 24 11 3 20 12 20 21 0 9 8
16 20 16 13 0 20 7 20 19 0 10 9 21 20 24 11 3 20 12 20 20 0 8 9 17 20 20 11
3 20 12 20 21 0 9 6 16 13 16 14 0 57 43 57 58 0 5 9 12 20 15 11 3 20 12 20
21 0 9 8 16 20 16 13 0 20 7 20 20 0 13 7 20 20 20 13 0 20 7 20 20 0 13 7 20
20 20 13 0 20 7 20 19 0 10 9 21 20 24 11 3 20 12 20 21 0 9 8 16 20 16 13 0
20 7 20 20 0 11 7 20 15 20 8 0 15 7 15 15 0 8 9 15 20 15 13 0 20 7 20 20 0
13 7 20 20 20 13 0 20 7 20 20 0 13 7 20 20 20 13 0 20 7 20 20 0 13 7 20 20
20 13 0 20 7 20 20 0 13 7 20 20 20 13 0 20 7 20 20 0 13 7 20 19 20 12 0 20
9 23 25 3 14 5 24 4 24 0 -1 -11 -4 -23 -6z"/>
<path d="M14861 17927 c-6 -19 -20 -51 -31 -72 -11 -22 -20 -54 -20 -72 0 -19
-6 -44 -14 -56 -14 -21 -19 -123 -14 -287 1 -28 -5 -56 -16 -72 -20 -31 -31
-127 -17 -148 14 -21 20 -10 31 55 5 31 13 62 18 69 6 6 12 49 15 96 6 102 53
394 67 420 13 23 13 100 1 100 -5 0 -14 -15 -20 -33z"/>
<path d="M14480 17825 c0 -8 -6 -15 -12 -15 -16 0 -176 -168 -184 -192 -3 -10
-9 -18 -14 -18 -5 0 -14 -17 -20 -37 -7 -21 -18 -45 -25 -53 -8 -8 -17 -28
-21 -45 -4 -16 -13 -39 -21 -51 -26 -40 -57 -236 -43 -280 6 -23 8 -24 9 -8 1
12 8 27 16 34 8 7 22 38 31 69 72 243 128 374 181 429 7 7 13 17 13 21 0 3 15
22 33 41 62 65 93 120 67 120 -5 0 -10 -7 -10 -15z"/>
<path d="M17718 17830 c-9 -6 -51 -15 -95 -21 -43 -6 -85 -17 -93 -24 -8 -7
-43 -17 -77 -21 -35 -3 -63 -10 -63 -14 0 -5 27 -11 60 -15 45 -5 66 -3 83 7
12 8 58 17 103 20 94 7 127 20 122 50 -4 25 -17 31 -40 18z"/>
<path d="M14710 17678 c-6 -24 -17 -54 -24 -68 -8 -14 -17 -45 -21 -70 -3 -25
-10 -58 -16 -75 -6 -20 -4 -49 5 -87 11 -46 11 -58 1 -58 -17 0 -25 -24 -32
-96 -4 -40 -1 -68 7 -85 l13 -24 8 27 c4 14 10 55 14 90 4 35 11 71 16 80 16
31 30 121 30 191 -1 46 4 76 14 90 17 24 21 112 5 122 -5 3 -14 -14 -20 -37z"/>
<path d="M18216 17699 c-21 -17 -34 -19 -66 -14 -26 4 -57 1 -87 -9 -27 -8
-79 -18 -118 -22 -38 -3 -88 -13 -110 -20 -22 -8 -50 -14 -61 -14 -23 0 -48
-23 -37 -33 10 -10 104 -8 164 3 30 6 103 17 163 25 84 12 114 20 128 35 12
13 32 20 53 20 28 0 35 4 35 19 0 10 -7 22 -16 25 -21 8 -18 9 -48 -15z"/>
<path d="M17035 17629 c-16 -4 -70 -11 -119 -15 -77 -5 -89 -9 -94 -26 -4 -18
-11 -20 -50 -15 -45 5 -112 -8 -112 -22 0 -4 -15 -8 -32 -8 -83 0 -160 -11
-176 -25 -10 -10 -49 -18 -102 -22 -52 -4 -91 -13 -101 -21 -19 -18 -115 -10
-100 9 12 16 22 76 12 76 -5 0 -11 -7 -15 -15 -3 -8 -12 -15 -21 -15 -8 0 -15
-6 -15 -14 0 -8 -12 -28 -26 -45 -31 -37 -23 -63 10 -32 l22 21 18 -21 c15
-19 24 -20 79 -14 34 4 74 14 89 21 15 8 42 14 60 13 43 -1 140 15 158 26 8 5
43 12 77 16 38 4 68 13 79 23 9 10 26 15 36 13 11 -3 31 -2 46 3 15 5 83 14
152 20 163 14 185 20 185 51 0 27 -15 31 -60 18z"/>
<path d="M17440 17451 c-30 -4 -64 -12 -75 -18 -11 -6 -62 -14 -112 -18 -59
-5 -97 -13 -104 -21 -6 -8 -26 -14 -43 -14 -41 0 -76 -10 -76 -21 0 -16 100
-10 133 8 32 17 58 19 270 22 102 1 108 2 116 24 5 12 6 25 2 29 -11 12 -55
16 -111 9z"/>
<path d="M14715 17138 c-2 -13 -6 -82 -7 -154 -3 -109 -6 -133 -20 -148 -10
-10 -18 -22 -18 -27 0 -5 -7 -9 -15 -9 -8 0 -15 -5 -15 -10 0 -21 -69 -80 -86
-73 -14 5 -15 21 -12 112 2 64 -1 108 -7 111 -6 3 -12 -55 -16 -159 -5 -136
-9 -166 -23 -176 -9 -7 -16 -15 -16 -19 0 -11 -98 -106 -109 -106 -6 0 -11 -7
-11 -15 0 -8 -7 -15 -15 -15 -8 0 -15 -9 -15 -20 0 -11 -7 -23 -15 -26 -8 -4
-15 -12 -15 -19 0 -20 39 -6 52 18 6 11 34 44 62 72 63 65 103 109 138 155 14
19 45 55 67 80 70 78 97 111 136 164 11 16 36 45 56 67 37 39 54 75 39 84 -9
6 -26 -9 -59 -51 -42 -54 -58 -16 -52 122 3 53 -14 83 -24 42z"/>
<path d="M17733 17120 c-4 -16 -14 -20 -50 -20 -44 0 -115 -18 -183 -46 -36
-15 -61 -20 -230 -48 -52 -9 -106 -22 -120 -30 -14 -7 -47 -17 -74 -21 -69
-10 -79 -14 -65 -31 8 -10 37 -14 99 -14 99 0 318 16 400 29 30 5 83 12 116
16 53 5 63 3 68 -12 5 -12 1 -22 -13 -32 -27 -18 -28 -51 -1 -51 13 0 20 7 20
20 0 13 7 20 20 20 16 0 20 7 20 35 0 22 8 43 20 55 16 16 20 32 18 78 -2 53
-10 71 -31 72 -5 0 -11 -9 -14 -20z"/>
<path d="M16355 17063 c-11 -3 -29 -12 -40 -19 -11 -8 -42 -14 -70 -14 -30 0
-59 -6 -71 -15 -10 -8 -27 -15 -36 -15 -36 0 -118 -22 -113 -29 15 -25 138
-15 157 12 3 6 44 12 90 15 54 3 89 10 100 19 9 9 38 18 63 20 29 4 45 10 45
19 0 10 -14 14 -52 13 -29 -1 -62 -4 -73 -6z"/>
<path d="M15723 17014 c-24 -23 -43 -51 -43 -62 0 -11 -12 -28 -27 -37 -24
-16 -25 -18 -8 -27 29 -17 171 -4 195 17 15 13 34 18 77 17 65 -2 99 11 73 28
-8 5 -26 8 -40 5 -14 -2 -46 -7 -72 -11 -27 -3 -48 -10 -48 -16 0 -13 -123 -5
-127 9 -2 6 5 14 16 18 12 3 21 13 21 20 0 8 8 20 19 27 10 7 21 23 25 36 11
34 -13 25 -61 -24z"/>
<path d="M13669 16928 c-2 -119 -12 -217 -24 -243 -11 -22 -18 -99 -25 -280
-5 -137 -14 -293 -19 -345 -5 -52 -10 -164 -10 -247 -2 -251 33 -173 44 97 10
278 28 587 40 715 17 176 20 335 5 335 -5 0 -10 -15 -11 -32z"/>
<path d="M13511 16877 c-8 -10 -11 -27 -7 -42 5 -18 2 -25 -7 -25 -18 0 -27
-61 -28 -184 0 -99 -12 -260 -28 -371 -17 -123 -34 -722 -21 -740 4 -5 11 -48
15 -95 6 -69 10 -81 18 -62 5 12 16 22 24 22 21 0 15 17 -8 23 -22 6 -22 6
-15 249 4 134 9 308 11 388 2 80 8 156 13 170 13 35 21 139 28 385 3 116 10
215 16 222 5 6 8 26 6 44 -3 29 -4 31 -17 16z"/>
<path d="M16384 16855 c-10 -8 -38 -15 -62 -15 -23 0 -59 -9 -79 -20 -21 -11
-55 -20 -76 -20 -21 0 -50 -6 -65 -14 -15 -8 -46 -17 -67 -21 -22 -4 -49 -13
-60 -20 -11 -6 -46 -15 -78 -19 -32 -3 -68 -13 -80 -20 -12 -8 -43 -17 -69
-21 -26 -3 -54 -13 -62 -21 -8 -8 -26 -14 -40 -14 -13 0 -37 -5 -53 -11 -22
-8 -24 -12 -13 -19 22 -14 77 -12 93 4 7 8 45 17 83 21 38 4 78 13 90 20 11 7
43 16 70 20 27 4 58 13 69 20 11 6 46 15 78 18 32 3 64 10 70 15 7 5 36 15 65
21 30 6 63 18 75 26 12 8 36 15 54 15 20 0 41 8 53 20 11 11 33 20 49 20 35 0
61 9 61 21 0 15 -85 10 -106 -6z"/>
<path d="M17121 16725 c-32 -15 -33 -17 -29 -60 4 -29 1 -51 -8 -62 -7 -10
-14 -28 -14 -40 0 -12 -9 -27 -20 -33 -11 -6 -23 -22 -26 -35 -3 -14 -12 -29
-19 -33 -15 -8 -55 -85 -55 -105 0 -8 -6 -20 -14 -26 -7 -6 -16 -30 -20 -52
-4 -27 -17 -52 -37 -72 -63 -63 -72 -97 -26 -97 30 0 41 9 71 53 18 26 26 51
26 81 0 28 5 46 14 49 7 3 17 18 20 33 4 15 16 39 27 52 10 14 19 33 19 43 0
10 4 21 10 24 5 3 22 31 37 61 15 31 35 60 45 65 10 5 18 15 18 22 0 7 11 34
25 61 18 37 21 54 14 68 -12 21 -14 22 -58 3z"/>
<path d="M15397 16607 c-15 -17 -27 -35 -27 -39 0 -4 -5 -8 -12 -8 -12 0 -68
-59 -68 -72 0 -4 -7 -8 -15 -8 -8 0 -15 -6 -15 -13 0 -8 -9 -22 -20 -32 -11
-10 -20 -23 -20 -30 0 -6 -18 -29 -40 -50 -22 -21 -40 -45 -40 -52 0 -7 -7
-13 -15 -13 -9 0 -19 -8 -22 -17 -4 -9 -24 -34 -45 -55 -21 -21 -38 -48 -38
-59 0 -18 2 -19 15 -9 8 7 15 16 15 21 0 5 34 43 75 84 41 42 75 80 75 86 0 5
7 9 15 9 8 0 15 8 15 17 0 10 9 26 20 38 43 45 60 65 60 73 0 4 18 23 40 42
22 19 40 40 40 46 0 7 8 14 18 17 19 4 36 43 23 51 -4 3 -19 -10 -34 -27z"/>
<path d="M16764 16555 c-10 -8 -30 -15 -44 -15 -14 0 -43 -9 -65 -20 -22 -11
-54 -20 -72 -20 -18 0 -55 -9 -83 -20 -28 -11 -71 -20 -96 -20 -30 0 -54 -7
-70 -19 -14 -11 -42 -22 -64 -26 -21 -4 -44 -13 -51 -21 -7 -8 -30 -14 -55
-14 -25 0 -60 -9 -81 -20 -21 -11 -48 -20 -60 -20 -13 0 -40 -9 -60 -20 -21
-11 -47 -20 -59 -20 -12 0 -46 -8 -76 -19 -100 -35 -326 -101 -346 -101 -7 0
-26 -7 -40 -15 -15 -8 -46 -19 -69 -25 -24 -6 -43 -15 -43 -20 0 -5 -18 -15
-40 -21 -21 -7 -37 -16 -34 -20 8 -14 93 -10 117 5 12 8 40 17 62 21 21 4 52
13 67 21 15 8 38 14 51 14 14 0 44 9 68 20 24 11 53 20 64 20 11 0 32 6 46 14
14 7 43 16 65 20 21 4 53 14 69 21 17 7 46 16 65 20 31 6 80 21 185 56 80 27
197 59 216 59 11 0 37 9 59 20 22 11 47 20 57 20 10 0 38 6 63 14 43 14 141
43 278 82 65 19 89 35 77 54 -9 15 -78 12 -101 -5z"/>
<path d="M13126 16481 c-11 -18 -17 -262 -9 -406 4 -82 5 -215 2 -295 -4 -80
-3 -171 3 -203 7 -44 5 -72 -7 -118 -9 -37 -17 -125 -20 -222 l-5 -162 16 95
c8 52 12 108 9 124 -3 20 0 32 11 41 15 10 17 70 22 577 3 398 2 567 -6 572
-6 3 -13 2 -16 -3z"/>
<path d="M13326 16463 c-4 -9 -11 -78 -17 -153 -5 -74 -14 -165 -19 -203 -12
-79 -12 -523 -1 -582 6 -36 20 145 26 355 1 25 7 81 13 125 14 98 35 453 27
466 -9 14 -22 11 -29 -8z"/>
<path d="M14255 16333 c-7 -31 -48 -83 -65 -83 -5 0 -10 -7 -10 -15 0 -8 -9
-20 -20 -27 -11 -7 -20 -23 -20 -35 0 -12 -8 -28 -18 -35 -10 -7 -21 -21 -25
-30 -9 -25 -43 -22 -61 4 -15 22 -16 21 -16 -24 0 -37 -4 -50 -20 -58 -11 -6
-20 -19 -20 -30 0 -10 -9 -22 -20 -25 -11 -4 -20 -15 -20 -26 0 -21 -52 -79
-89 -98 -13 -7 -21 -21 -21 -36 0 -18 -5 -25 -20 -25 -11 0 -20 -4 -20 -8 0
-5 -18 -28 -40 -53 -42 -47 -50 -76 -24 -86 11 -4 27 7 50 32 19 21 34 42 34
47 0 4 7 8 15 8 8 0 15 7 15 16 0 9 9 18 20 21 12 3 20 14 20 26 0 22 5 28 69
93 30 30 41 49 41 72 0 21 7 35 20 42 11 6 20 17 20 25 0 7 9 16 19 20 11 3
22 12 25 20 3 8 12 15 21 15 8 0 15 7 15 16 0 9 9 18 19 21 12 3 23 17 26 35
4 16 13 32 21 35 8 3 14 11 14 19 0 7 6 17 13 21 8 4 16 16 20 26 3 9 13 17
21 17 7 0 16 9 19 20 3 11 12 20 21 20 10 0 16 9 16 25 0 36 -36 34 -45 -2z"/>
<path d="M16760 16329 c-29 -54 -110 -89 -253 -108 -38 -5 -76 -16 -85 -24
-11 -10 -45 -16 -94 -19 -78 -3 -103 -12 -79 -27 18 -12 136 -3 191 14 25 8
77 14 115 13 45 -1 84 5 109 16 21 9 49 16 62 16 42 0 85 91 59 127 -11 15
-14 14 -25 -8z"/>
<path d="M16686 15993 c-3 -3 -6 -14 -6 -22 0 -9 -8 -23 -17 -32 -18 -15 -83
-90 -126 -144 -36 -45 -45 -67 -53 -123 -3 -29 -10 -52 -15 -52 -4 0 -13 -16
-20 -35 -7 -19 -17 -35 -21 -35 -4 0 -8 -12 -8 -27 1 -24 2 -26 13 -12 7 8 20
18 30 22 12 5 17 17 17 47 0 25 5 40 13 40 21 0 184 252 186 288 1 7 8 20 16
28 8 9 15 24 15 34 0 20 -13 33 -24 23z"/>
<path d="M16307 15894 c-3 -3 -51 -12 -107 -20 -56 -8 -110 -19 -121 -25 -11
-5 -56 -14 -100 -19 -44 -5 -95 -14 -112 -19 -18 -5 -49 -13 -70 -18 -59 -12
-49 -28 21 -31 43 -2 73 2 95 13 17 9 65 18 107 22 41 3 89 11 105 18 17 8 84
19 150 25 87 8 123 16 132 27 7 9 10 20 7 24 -6 10 -97 12 -107 3z"/>
<path d="M12895 15843 c-3 -21 -10 -74 -15 -118 -5 -44 -14 -102 -19 -130 -6
-27 -10 -71 -10 -97 -1 -26 -8 -73 -16 -105 -8 -31 -15 -87 -14 -123 1 -65 1
-65 15 -32 8 17 19 32 24 32 6 0 10 26 10 58 0 54 20 179 35 214 13 31 31 318
21 328 -17 17 -24 11 -31 -27z"/>
<path d="M15510 15741 c-8 -5 -55 -14 -103 -20 -48 -7 -98 -16 -110 -21 -12
-5 -53 -14 -92 -20 -38 -6 -74 -15 -80 -20 -10 -8 -96 -33 -178 -52 -28 -6
-52 -18 -58 -29 -5 -11 -20 -19 -34 -19 -32 0 -56 -10 -49 -21 8 -13 50 -11
103 6 133 42 175 53 340 91 35 8 73 20 84 25 11 6 52 15 91 20 45 6 73 14 79
24 4 8 18 15 30 15 35 0 67 11 61 21 -7 11 -64 11 -84 0z"/>
<path d="M16060 15648 c-52 -16 -123 -34 -158 -39 -34 -4 -83 -16 -110 -24
-26 -9 -67 -20 -92 -25 -56 -9 -121 -26 -225 -55 -101 -29 -167 -45 -230 -56
-27 -5 -68 -15 -90 -23 -22 -8 -66 -17 -99 -20 -32 -4 -67 -11 -79 -18 -11 -6
-46 -16 -76 -24 -58 -13 -172 -43 -251 -66 -56 -16 -114 -58 -100 -72 6 -6 23
-4 47 6 21 9 58 21 83 27 25 7 77 21 115 32 39 11 93 25 120 30 28 6 70 17 95
26 25 8 70 18 101 23 30 4 64 12 75 17 10 6 49 14 85 17 36 4 78 14 94 22 15
8 40 14 56 14 25 0 124 22 289 65 30 8 80 19 110 26 65 13 280 75 330 94 19 8
50 17 68 20 19 4 31 12 29 18 -7 22 -91 15 -187 -15z"/>
<path d="M16143 15309 c-6 -6 -29 -15 -50 -20 -50 -10 -150 -38 -188 -51 -16
-5 -52 -16 -80 -23 -27 -7 -63 -18 -80 -23 -16 -6 -64 -20 -105 -32 -41 -13
-100 -31 -130 -41 -30 -10 -71 -21 -90 -25 -19 -3 -44 -13 -55 -20 -11 -8 -31
-14 -46 -14 -36 0 -58 -26 -38 -45 15 -14 96 -5 154 19 74 31 136 49 208 62
44 7 84 17 90 23 7 5 61 23 122 40 60 17 114 36 119 41 6 6 18 10 27 10 36 0
159 57 179 83 l21 27 -23 0 c-13 0 -29 -5 -35 -11z"/>
<path d="M14250 15265 c0 -9 -7 -18 -15 -21 -8 -4 -15 -17 -15 -30 0 -12 -9
-29 -20 -37 -15 -10 -22 -30 -26 -74 -8 -76 5 -85 45 -34 18 22 42 41 54 43
15 2 23 11 25 28 2 13 12 30 22 37 19 13 32 60 19 68 -4 3 -15 -5 -24 -17 -16
-23 -16 -23 -30 -4 -8 11 -15 28 -15 38 0 10 -4 18 -10 18 -5 0 -10 -7 -10
-15z"/>
<path d="M15190 15012 c-19 -2 -43 -11 -53 -20 -12 -10 -39 -17 -80 -18 -38
-1 -79 -10 -107 -23 -25 -11 -57 -21 -71 -21 -15 0 -29 -6 -32 -14 -3 -8 -26
-18 -51 -21 -25 -4 -50 -13 -56 -21 -7 -7 -32 -16 -56 -20 -34 -5 -44 -10 -44
-25 0 -15 7 -19 34 -19 21 0 36 6 40 15 3 9 18 15 34 15 16 0 41 9 55 20 16
13 40 20 66 20 27 0 43 5 50 17 7 13 24 18 66 20 35 1 64 8 74 17 10 9 33 16
52 16 42 1 161 55 133 61 -11 2 -35 3 -54 1z"/>
<path d="M13985 14844 c-22 -25 -48 -54 -58 -65 -10 -11 -20 -33 -23 -49 -4
-16 -12 -31 -20 -34 -8 -3 -14 -11 -14 -18 0 -7 -8 -18 -19 -25 -10 -7 -21
-29 -25 -53 -3 -22 -13 -43 -21 -46 -8 -4 -15 -12 -15 -20 0 -8 -9 -19 -20
-26 -12 -8 -20 -24 -20 -40 0 -17 -8 -31 -20 -38 -11 -6 -20 -19 -20 -28 0
-10 -7 -28 -16 -40 -14 -20 -14 -22 4 -22 13 0 22 12 31 40 6 22 16 40 21 40
6 0 10 6 10 14 0 7 9 16 20 19 12 3 20 14 20 26 0 12 9 29 20 38 11 10 20 26
20 36 0 9 6 20 14 23 8 3 18 19 21 36 4 16 13 32 21 35 7 2 16 14 19 24 9 28
57 99 67 99 4 0 8 9 8 19 0 30 11 51 26 51 8 0 14 10 14 25 0 14 -1 25 -2 24
-2 0 -21 -21 -43 -45z"/>
<path d="M14789 14598 c8 -21 12 -22 195 -22 156 -1 188 1 196 14 8 13 -5 16
-88 21 -53 4 -145 7 -204 8 -106 1 -107 1 -99 -21z"/>
<path d="M11972 13965 c3 -234 5 -274 21 -302 14 -27 17 -63 18 -245 1 -117 4
-202 6 -189 3 14 11 34 18 45 7 12 15 43 19 70 5 38 13 56 41 82 19 18 35 35
35 37 0 11 -52 -7 -57 -19 -3 -8 -11 -14 -18 -14 -28 0 -35 64 -35 322 0 210
-3 264 -15 288 -8 16 -18 64 -21 107 -12 148 -16 87 -12 -182z"/>
<path d="M14245 14161 c-11 -4 -31 -12 -45 -18 -14 -7 -41 -14 -62 -18 -20 -3
-39 -12 -42 -20 -3 -10 -20 -15 -48 -15 -24 0 -55 -6 -69 -14 -14 -7 -48 -17
-75 -21 -27 -4 -62 -15 -79 -25 -16 -9 -42 -20 -57 -24 -16 -3 -28 -11 -28
-16 0 -6 -6 -10 -14 -10 -7 0 -19 -7 -26 -15 -19 -23 15 -31 46 -10 24 16 50
24 184 62 30 8 60 19 66 24 6 5 34 13 62 20 29 6 52 14 52 19 0 4 22 10 48 14
26 3 57 12 68 20 11 8 38 17 60 21 63 11 71 14 54 25 -17 11 -65 11 -95 1z"/>
<path d="M15154 14145 c-11 -9 -42 -15 -79 -15 -33 0 -72 -7 -87 -14 -16 -8
-49 -18 -75 -22 -27 -3 -73 -18 -103 -31 -48 -22 -52 -26 -35 -35 14 -8 32 -7
69 6 28 9 80 23 116 30 110 24 184 47 201 62 8 8 23 14 33 14 9 0 14 5 11 10
-9 14 -28 12 -51 -5z"/>
<path d="M11351 13598 c1 -197 12 -350 29 -423 6 -29 12 -149 13 -285 2 -207
4 -235 18 -238 13 -2 17 9 22 50 11 94 8 649 -2 662 -6 7 -12 21 -14 32 -1 10
-5 24 -8 29 -4 6 -5 24 -4 40 1 17 4 65 5 108 3 70 1 80 -19 93 -16 12 -21 25
-21 60 0 24 -4 44 -10 44 -6 0 -10 -63 -9 -172z"/>
<path d="M13273 13705 c-13 -12 -23 -27 -23 -33 0 -6 -9 -16 -20 -22 -12 -6
-20 -21 -20 -35 0 -14 -9 -30 -20 -37 -12 -8 -20 -24 -20 -41 0 -20 -6 -30
-20 -34 -15 -4 -20 -14 -21 -42 0 -33 -16 -90 -18 -66 -2 15 -61 -55 -61 -72
0 -7 -7 -16 -15 -19 -8 -4 -15 -15 -15 -26 0 -11 -8 -22 -20 -25 -13 -4 -20
-14 -20 -30 0 -16 -7 -27 -20 -30 -14 -4 -20 -14 -20 -35 0 -29 -46 -88 -69
-88 -6 0 -11 -11 -11 -24 0 -14 -7 -31 -15 -40 -8 -8 -15 -17 -15 -20 0 -3 7
-6 15 -6 8 0 15 -4 15 -9 0 -5 11 -4 25 2 14 7 25 20 25 29 0 9 4 19 9 22 5 3
14 29 21 57 7 28 19 53 26 56 8 3 14 14 14 24 0 10 9 28 20 39 11 11 20 26 20
33 0 19 43 57 63 57 13 0 17 9 17 34 0 18 8 44 19 57 10 13 21 34 25 47 4 12
14 22 22 22 8 0 14 8 14 18 0 11 9 27 20 37 11 10 20 26 20 36 0 10 9 21 20
24 11 3 20 14 20 24 0 10 9 30 20 44 11 14 20 30 20 35 0 5 7 12 15 16 8 3 15
15 15 26 0 27 -28 25 -57 -5z"/>
<path d="M8244 13705 c-23 -17 1 -18 546 -17 604 0 594 0 580 17 -19 22 -1096
23 -1126 0z"/>
<path d="M8490 13394 l0 -27 127 7 c69 4 134 13 144 19 14 9 26 9 51 -1 20 -7
36 -8 43 -2 19 16 190 17 209 1 14 -12 16 -11 16 8 0 21 -1 21 -295 21 l-295
0 0 -26z"/>
<path d="M14050 13312 c-30 -2 -62 -9 -70 -16 -8 -7 -39 -16 -69 -19 -29 -4
-58 -11 -65 -16 -6 -5 -38 -14 -70 -20 -33 -6 -63 -15 -66 -21 -3 -5 -28 -13
-56 -16 -27 -4 -60 -12 -74 -19 -14 -7 -44 -16 -67 -20 -23 -3 -59 -15 -80
-26 -20 -10 -49 -19 -64 -19 -15 0 -44 -6 -65 -14 -22 -7 -61 -16 -87 -20 -39
-6 -50 -12 -58 -33 -13 -35 -6 -39 35 -19 19 9 48 16 66 16 18 0 46 6 63 14
18 8 59 19 92 25 58 9 237 67 300 96 17 7 51 16 77 20 25 3 52 13 58 20 7 8
27 15 44 15 40 0 106 18 106 30 0 5 25 12 55 15 50 7 77 19 58 27 -5 2 -33 2
-63 0z"/>
<path d="M14343 13099 c-5 -5 -36 -12 -67 -14 -32 -2 -65 -10 -74 -18 -9 -8
-39 -18 -66 -22 -27 -3 -58 -10 -70 -15 -11 -5 -68 -23 -126 -40 -58 -17 -116
-36 -130 -42 -14 -6 -47 -16 -75 -23 -27 -7 -72 -22 -100 -33 -27 -11 -66 -26
-85 -32 -19 -7 -55 -20 -80 -30 -69 -27 -111 -41 -155 -52 -22 -6 -49 -17 -60
-25 -11 -7 -26 -13 -35 -13 -8 0 -28 -7 -45 -16 -16 -9 -51 -22 -77 -30 -26
-8 -50 -19 -53 -24 -3 -6 -16 -10 -28 -10 -27 0 -115 -45 -140 -71 -11 -12
-32 -19 -57 -19 -33 0 -40 -3 -40 -19 0 -15 -8 -21 -37 -24 l-38 -4 40 -1 c31
-2 43 3 53 18 9 14 23 20 50 20 21 0 47 7 58 15 10 8 33 15 50 15 17 0 37 7
44 15 7 8 22 15 34 15 12 0 39 9 61 20 22 11 48 20 60 20 11 0 32 6 47 14 15
8 42 17 60 21 18 4 49 16 68 26 19 11 44 19 55 19 12 0 57 13 100 29 44 16
123 44 176 64 52 19 104 39 115 45 10 6 60 23 109 37 95 29 213 72 230 85 6 4
29 11 52 15 47 7 155 44 193 65 14 8 43 17 65 21 39 6 38 7 -15 8 -31 0 -61
-4 -67 -10z"/>
<path d="M6386 13045 c9 -14 25 -25 35 -25 12 0 19 -7 19 -20 0 -15 7 -20 25
-20 33 0 93 -31 101 -52 3 -10 10 -18 15 -18 5 0 9 -12 9 -27 0 -43 13 -56 52
-51 31 3 34 1 30 -19 -4 -19 0 -23 19 -23 13 0 30 9 37 20 17 27 65 26 122 -2
25 -13 48 -27 52 -33 4 -6 8 -2 8 8 0 9 -6 17 -14 17 -8 0 -18 9 -21 20 -4 12
-15 20 -29 20 -13 0 -31 9 -41 20 -21 24 -60 26 -69 5 -7 -20 -46 -20 -46 0 0
9 -8 19 -17 22 -10 4 -22 12 -26 20 -4 7 -14 13 -22 13 -7 0 -17 9 -20 20 -3
11 -12 20 -20 20 -7 0 -15 8 -17 18 -4 15 -12 18 -37 14 -27 -4 -33 -1 -38 17
-3 14 -13 21 -29 21 -13 0 -28 9 -34 20 -6 12 -21 20 -36 20 -24 0 -24 -1 -8
-25z"/>
<path d="M7773 12953 c-7 -2 -13 -19 -13 -36 0 -18 -4 -27 -8 -21 -11 18 -72
23 -72 6 0 -7 -14 -19 -30 -25 -17 -6 -32 -19 -35 -28 -4 -11 -13 -15 -30 -11
-20 3 -25 0 -25 -17 0 -12 -6 -21 -15 -21 -8 0 -15 -9 -15 -21 0 -24 -49 -89
-67 -89 -8 0 -13 -14 -13 -36 0 -31 3 -35 23 -32 15 2 23 11 25 28 6 37 21 53
38 39 8 -6 14 -20 14 -30 0 -26 20 -34 27 -10 3 12 12 21 19 21 9 0 14 12 14
35 0 19 4 35 9 35 5 0 30 20 55 45 26 25 56 45 66 45 13 0 20 7 20 20 0 13 7
20 20 20 13 0 20 7 20 20 0 11 7 20 15 20 9 0 15 9 15 25 0 19 -5 25 -22 24
-13 0 -29 -3 -35 -6z"/>
<path d="M7863 12893 c0 -36 -3 -43 -18 -43 -8 0 -15 -9 -15 -20 0 -14 -7 -20
-21 -20 -12 0 -23 -8 -26 -20 -3 -11 -12 -20 -21 -20 -12 0 -14 -10 -9 -56 7
-66 14 -76 33 -50 8 11 14 14 14 8 0 -7 9 -12 20 -12 16 0 20 7 20 30 0 23 -4
30 -20 30 -14 0 -20 7 -20 21 0 19 4 20 40 14 36 -6 40 -5 40 14 0 14 6 21 20
21 14 0 20 7 20 24 0 19 -4 23 -19 19 -11 -3 -22 -12 -24 -22 -3 -11 -5 -9 -6
7 -1 13 5 22 14 22 8 0 15 5 15 11 0 5 5 7 10 4 15 -9 12 8 -6 33 -18 26 -41
29 -41 5z"/>
<path d="M6440 12811 c0 -14 6 -21 20 -21 13 0 20 -7 20 -20 0 -11 7 -20 15
-20 11 0 15 -11 15 -40 0 -31 4 -40 18 -40 19 0 62 -41 62 -59 0 -6 9 -11 20
-11 13 0 20 -7 20 -20 0 -13 7 -20 20 -20 13 0 20 7 20 20 0 11 -7 20 -15 20
-9 0 -15 10 -15 26 0 23 3 25 31 19 29 -7 30 -6 20 14 -7 12 -16 21 -22 21 -5
0 -14 11 -19 25 -5 14 -15 25 -21 25 -14 0 -59 47 -59 61 0 6 -12 10 -27 9
-48 -3 -63 0 -60 12 1 7 -8 14 -20 16 -18 3 -23 -1 -23 -17z"/>
<path d="M6937 12740 c3 -11 12 -20 20 -20 8 0 17 -9 20 -20 3 -11 14 -20 24
-20 12 0 19 -7 19 -20 0 -11 7 -20 15 -20 21 0 20 -56 -1 -64 -35 -13 -76 -6
-81 14 -3 11 -11 20 -18 20 -7 0 -15 8 -18 19 -2 10 -16 20 -31 23 -31 6 -34
-7 -6 -22 24 -13 26 -45 4 -54 -33 -13 -73 -6 -84 14 -6 11 -17 20 -25 20 -8
0 -15 9 -15 20 0 13 -7 20 -20 20 -15 0 -20 -7 -20 -25 0 -16 -6 -25 -15 -25
-15 0 -35 -38 -35 -67 0 -11 7 -14 23 -11 20 4 23 1 19 -19 -3 -16 0 -23 11
-23 8 0 17 -9 20 -20 3 -12 14 -20 26 -20 14 0 21 -6 21 -19 0 -10 9 -21 20
-24 15 -4 20 -14 20 -36 0 -21 5 -31 15 -31 8 0 15 -9 15 -20 0 -13 7 -20 20
-20 15 0 20 -7 20 -29 0 -42 -17 -81 -35 -81 -8 0 -15 9 -15 20 0 19 -7 20
-109 20 -100 0 -109 -2 -114 -20 -4 -15 -14 -20 -39 -20 -21 0 -40 -7 -51 -20
-9 -11 -26 -20 -37 -20 -11 0 -20 -4 -20 -9 0 -24 -105 -106 -135 -106 -14 0
-20 -6 -19 -21 0 -20 -3 -21 -88 -16 -85 5 -88 4 -88 -17 0 -17 6 -21 30 -21
24 0 30 -4 30 -21 0 -17 -2 -18 -14 -7 -20 21 -146 23 -146 3 0 -13 33 -21 64
-16 21 4 46 -12 46 -30 0 -19 33 -28 44 -11 9 16 68 0 73 -19 4 -16 19 -18
127 -21 105 -3 124 -1 146 15 20 15 35 17 80 12 82 -9 90 -13 90 -42 0 -21 -2
-23 -15 -13 -20 17 -77 5 -100 -20 -12 -13 -31 -20 -54 -20 -28 0 -39 -5 -46
-22 -8 -19 -18 -23 -57 -22 -40 0 -48 -3 -48 -18 0 -13 -8 -18 -31 -18 -22 0
-32 -5 -36 -20 -3 -13 -14 -20 -29 -20 -17 0 -24 -6 -24 -20 0 -13 -7 -20 -20
-20 -13 0 -20 -7 -20 -20 0 -11 -7 -20 -15 -20 -10 0 -15 -10 -15 -30 0 -39
36 -43 46 -5 3 14 13 25 20 25 8 0 17 7 21 16 3 8 16 20 29 25 13 4 24 15 24
24 0 8 5 15 10 15 6 0 10 9 10 20 0 21 8 23 71 20 29 -1 37 3 42 19 3 14 13
21 30 21 13 0 34 9 47 20 14 13 37 20 62 20 21 0 38 5 38 10 0 18 29 11 40 -9
17 -33 12 -59 -12 -63 -26 -3 -37 -36 -16 -50 9 -7 5 -8 -13 -5 -18 2 -30 -2
-38 -15 -7 -12 -23 -18 -47 -18 -31 0 -36 -3 -31 -20 4 -17 0 -20 -29 -20 -24
0 -34 -5 -34 -15 0 -8 -7 -15 -17 -15 -24 0 -93 -79 -93 -107 0 -16 -6 -23
-19 -23 -10 0 -21 -7 -25 -15 -3 -8 -15 -15 -27 -15 -18 0 -20 -4 -15 -25 5
-21 2 -27 -19 -37 -21 -9 -26 -18 -23 -42 2 -25 -1 -31 -17 -31 -16 0 -20 -6
-18 -30 1 -16 2 -46 2 -65 0 -19 1 -53 1 -75 1 -43 -6 -48 -94 -75 l-28 -9 4
87 c3 74 7 91 26 110 12 12 22 31 22 42 0 35 -44 9 -54 -34 -6 -20 -16 -36
-24 -36 -12 0 -14 -24 -11 -143 4 -129 2 -143 -12 -140 -22 6 -29 -51 -29
-238 0 -142 1 -149 20 -149 19 0 20 7 21 158 1 86 4 147 6 135 3 -15 12 -23
24 -23 17 0 19 -7 19 -59 0 -50 -3 -59 -20 -64 -18 -5 -20 -14 -20 -86 0 -74
2 -81 20 -81 18 0 20 7 20 75 0 64 3 76 20 85 17 9 20 21 20 90 0 61 4 82 17
96 12 11 16 29 14 56 -2 33 1 40 18 45 21 5 26 18 22 61 -1 16 4 22 18 22 20
0 31 18 31 52 0 12 18 38 41 59 31 28 39 43 34 57 -4 15 0 22 15 27 15 5 20
15 20 41 0 23 6 38 20 46 11 7 20 23 20 36 0 30 42 70 106 100 46 23 49 23 61
6 7 -10 13 -23 13 -29 0 -6 11 -26 24 -44 21 -28 24 -41 19 -80 -4 -38 -2 -49
16 -65 12 -11 21 -27 21 -37 0 -9 6 -20 13 -22 10 -4 10 -6 0 -6 -8 -1 -13
-14 -13 -31 0 -41 37 -43 43 -2 2 15 3 -3 0 -39 l-4 -66 37 -6 c20 -4 41 -4
46 -1 12 8 -1 64 -18 82 -8 7 -14 25 -14 39 0 16 -7 27 -20 30 -19 5 -20 14
-20 164 0 152 -1 159 -20 159 -11 0 -20 -4 -20 -10 0 -5 -18 -10 -40 -10 -33
0 -40 3 -40 20 0 16 7 20 38 20 31 1 40 6 60 36 12 20 22 50 22 69 0 24 5 34
20 38 15 4 20 14 20 41 0 20 5 36 11 36 24 0 59 51 59 86 0 20 5 34 13 35 6 0
33 4 59 8 l47 8 -5 -31 c-11 -65 -15 -72 -49 -94 -29 -18 -35 -28 -33 -55 1
-17 -2 -39 -6 -48 -6 -13 0 -18 23 -21 30 -4 31 -3 31 31 0 51 10 81 26 81 10
0 14 13 14 39 0 31 4 41 20 46 11 3 20 12 20 19 0 7 9 21 20 31 11 10 20 23
20 29 0 16 59 66 77 66 8 0 27 -13 43 -29 16 -16 32 -26 35 -23 3 3 5 27 5 54
0 36 4 48 15 48 8 0 15 7 15 15 0 8 9 15 19 15 11 0 27 8 37 18 25 24 125 23
153 -2 13 -12 27 -16 41 -11 20 6 20 8 5 19 -27 19 -15 49 23 57 29 6 35 4 43
-18 8 -21 13 -23 45 -17 30 6 36 4 41 -14 3 -12 15 -22 27 -24 13 -2 22 -11
24 -25 2 -13 8 -23 13 -23 5 0 9 -6 9 -13 0 -8 11 -19 25 -25 20 -9 25 -19 25
-47 0 -22 8 -43 21 -56 18 -18 21 -29 16 -76 -5 -49 -4 -55 16 -62 16 -6 23
-5 25 5 2 8 14 14 28 14 17 0 24 -5 24 -20 0 -15 -7 -20 -25 -20 -24 0 -25 -2
-27 -77 -3 -108 -3 -130 3 -368 3 -115 4 -189 2 -162 -3 39 -7 47 -24 47 -18
0 -20 -7 -19 -72 3 -190 0 -248 -15 -248 -17 0 -29 -40 -20 -69 4 -14 0 -26
-14 -38 -12 -9 -24 -32 -27 -49 -3 -18 -12 -35 -19 -38 -7 -2 -16 -18 -20 -35
-4 -17 -15 -33 -26 -36 -13 -4 -19 -15 -19 -35 0 -16 -7 -30 -16 -34 -11 -4
-15 -15 -12 -34 4 -25 1 -28 -19 -24 -16 3 -23 0 -23 -11 0 -8 -15 -27 -32
-42 -20 -17 -35 -40 -38 -59 -4 -28 -9 -31 -42 -34 -36 -3 -38 -5 -39 -40 -1
-20 -1 -41 0 -45 1 -5 -16 -6 -37 -2 -31 5 -41 3 -45 -9 -4 -9 -13 -16 -22
-16 -8 0 -15 -9 -15 -20 0 -28 -20 -33 -96 -25 -58 6 -66 10 -77 33 -6 15 -12
29 -13 30 -1 2 -19 -4 -38 -13 -28 -14 -50 -16 -100 -10 -68 7 -78 2 -69 -33
5 -20 12 -22 80 -22 66 0 75 -2 80 -20 4 -17 14 -20 57 -20 29 0 59 -7 70 -15
18 -14 18 -16 4 -27 -9 -7 -18 -24 -20 -38 -3 -24 -6 -25 -80 -28 -70 -3 -78
-5 -78 -22 0 -18 7 -20 67 -20 41 0 81 -7 105 -17 36 -16 39 -21 38 -53 -1
-19 -2 -72 -1 -118 1 -81 2 -83 24 -80 18 2 22 10 23 43 2 68 4 73 21 91 16
15 16 17 1 28 -10 7 -20 34 -24 63 -5 45 -4 53 17 72 19 18 24 31 22 68 -1 37
2 46 18 50 10 3 19 10 19 17 0 6 14 22 31 36 18 14 40 33 50 43 11 9 21 17 24
17 10 0 54 54 55 66 0 7 25 15 55 19 54 6 55 7 55 39 0 20 8 40 20 51 11 10
20 29 20 42 0 13 6 23 14 23 8 0 17 14 21 30 4 17 15 36 26 43 10 6 19 19 19
28 0 9 9 24 20 34 13 12 20 31 20 57 0 26 4 38 14 38 15 0 26 42 19 71 -3 10
-10 19 -15 19 -5 0 -6 6 -1 13 4 6 10 64 13 127 l5 115 57 5 57 5 -6 -62 c-6
-60 -5 -63 17 -63 20 0 22 -3 16 -34 -7 -36 3 -51 68 -101 42 -32 86 -76 86
-86 0 -5 6 -9 14 -9 8 0 16 -7 20 -15 3 -8 15 -15 26 -15 13 0 20 -7 20 -20 0
-16 7 -20 35 -20 21 0 41 -7 53 -20 16 -18 27 -19 98 -14 l80 7 -4 33 c-2 19
-8 34 -12 34 -4 0 -10 9 -13 20 -3 11 -1 20 3 20 5 0 8 9 7 20 -1 17 -8 20
-45 20 -39 0 -44 -2 -39 -20 3 -13 0 -20 -9 -20 -8 0 -13 -3 -13 -7 6 -35 -2
-44 -33 -41 -32 3 -33 5 -30 41 2 20 -1 37 -5 37 -5 0 -7 14 -5 31 l5 31 -54
-7 c-30 -3 -62 -9 -71 -11 -12 -4 -15 0 -11 16 4 14 -2 29 -17 45 -12 13 -20
31 -17 39 4 9 -4 21 -19 30 -16 11 -24 26 -24 44 0 15 -9 44 -20 65 -13 24
-20 56 -20 91 0 64 -7 86 -27 86 -10 0 -14 13 -13 53 3 175 2 182 -25 205 -14
13 -23 27 -20 32 3 5 6 76 6 158 1 82 5 155 9 162 4 6 16 10 26 8 14 -2 21
-16 27 -56 7 -42 12 -52 28 -52 14 0 19 7 19 29 0 16 -6 31 -15 35 -8 3 -15
16 -15 28 -1 26 -26 60 -58 77 -12 6 -22 18 -22 26 0 8 -9 19 -20 25 -13 7
-20 21 -20 42 0 27 -3 30 -26 25 -25 -4 -26 -3 -19 32 12 71 12 71 67 71 l50
0 -4 40 c-3 33 0 40 14 40 19 0 26 34 9 44 -4 3 -47 7 -95 8 -90 2 -112 12
-100 42 5 14 17 17 58 14 l51 -3 -3 46 c-3 40 -1 46 23 57 14 7 37 12 50 12
14 0 30 9 37 20 15 24 73 28 82 5 4 -11 20 -15 56 -15 47 0 50 -2 50 -25 0
-31 25 -33 40 -4 10 17 8 21 -9 26 -12 3 -21 14 -21 24 0 15 -7 19 -40 19 -33
0 -40 3 -40 19 0 19 -8 20 -114 20 -110 0 -115 -1 -119 -22 l-4 -22 -2 23 c-1
15 -7 22 -21 22 -11 0 -20 -4 -20 -9 0 -6 -11 -16 -24 -23 -13 -7 -38 -21 -55
-31 -37 -21 -61 -10 -61 27 0 16 9 24 33 31 27 8 33 15 35 44 3 26 -2 40 -22
58 -38 35 -56 30 -56 -16 0 -22 6 -42 13 -44 6 -3 -3 -3 -20 0 -32 5 -33 5
-33 -31 0 -23 -5 -39 -15 -42 -10 -4 -15 -20 -15 -44 0 -35 -2 -37 -26 -32
-22 4 -25 2 -22 -19 4 -31 53 -40 62 -12 4 14 16 18 50 18 30 0 49 6 58 17 21
26 71 32 95 11 l21 -19 -22 -19 c-12 -11 -25 -28 -29 -37 -5 -14 -18 -18 -57
-18 -43 0 -50 -3 -50 -19 0 -11 5 -21 12 -23 7 -3 6 -7 -5 -11 -9 -3 -17 -2
-17 3 0 6 -20 10 -45 10 -32 0 -45 -4 -45 -14 0 -7 -7 -27 -15 -42 l-15 -29 0
26 c0 20 -6 28 -26 33 -19 5 -25 12 -22 29 2 17 9 22 31 20 22 -1 27 2 27 23
0 17 -5 24 -20 24 -11 0 -20 -4 -20 -9 0 -5 -10 -13 -22 -17 -12 -3 -29 -16
-39 -27 -25 -32 -49 -8 -49 49 0 37 3 44 20 44 17 0 20 7 20 50 0 45 3 52 25
60 23 9 24 13 18 56 -5 37 -3 48 10 56 11 6 17 22 17 43 0 33 -2 35 -35 35
-20 0 -37 6 -43 15 -15 28 -42 7 -42 -32 0 -26 -5 -36 -20 -40 -15 -4 -20 -14
-20 -39 0 -27 -4 -34 -19 -34 -10 0 -24 -7 -31 -15 -7 -8 -23 -15 -36 -15 -21
0 -24 5 -24 36 0 38 -13 57 -48 68 -12 4 -22 14 -22 22 0 8 -6 14 -14 14 -8 0
-23 17 -33 38 -12 25 -26 38 -43 40 -14 2 -29 10 -33 18 -4 8 -15 14 -22 14
-8 0 -15 9 -15 20 0 16 -7 20 -30 20 -19 0 -34 7 -42 20 -7 11 -16 20 -19 20
-4 0 -5 -9 -2 -20z m7 -230 c-6 -26 -4 -30 15 -30 14 0 21 -6 21 -20 0 -16 7
-20 30 -20 35 0 50 -27 50 -86 0 -19 4 -34 10 -34 5 0 14 -18 20 -40 8 -29 15
-38 26 -33 11 4 12 9 5 16 -12 12 -15 85 -5 111 8 22 30 20 46 -3 7 -10 22
-20 33 -22 16 -4 19 -11 16 -52 -2 -37 1 -48 14 -53 10 -4 21 -1 26 7 6 9 7
-4 3 -36 -4 -27 -8 -70 -8 -95 -1 -39 -4 -45 -23 -48 -15 -2 -23 -10 -23 -23
0 -14 -7 -19 -29 -19 -39 0 -61 9 -61 26 0 8 -9 14 -20 14 -17 0 -20 7 -20 40
0 37 -2 40 -26 40 -25 0 -26 2 -21 35 5 30 3 35 -13 35 -11 0 -20 -9 -23 -22
-2 -13 -2 9 1 47 3 39 1 67 -3 63 -14 -13 -35 13 -35 43 0 19 -5 29 -15 29 -8
0 -15 5 -15 11 0 7 -11 22 -25 35 -42 38 -29 94 22 94 13 0 23 5 23 10 0 6 2
10 5 10 2 0 2 -13 -1 -30z m-170 -399 c14 -26 20 -29 71 -30 66 0 71 -3 78
-37 6 -32 -13 -41 -45 -20 -26 17 -49 18 -175 10 -83 -6 -98 -15 -71 -42 17
-17 36 -15 56 4 13 13 28 15 81 10 99 -10 108 -36 20 -51 -25 -4 -39 -13 -42
-26 -4 -16 -13 -19 -53 -17 -36 1 -50 -3 -61 -18 -11 -16 -29 -20 -98 -23
l-85 -3 0 44 c0 54 13 68 60 68 25 0 43 7 55 21 19 20 18 20 -9 42 -25 21 -27
24 -12 36 10 9 39 13 76 12 51 -1 63 2 84 24 33 33 52 32 70 -4z"/>
<path d="M17610 12470 c7 -12 27 -21 57 -26 46 -7 353 3 362 12 21 20 -91 34
-276 33 -145 -1 -152 -2 -143 -19z"/>
<path d="M13071 12463 c-29 -2 -63 -11 -75 -18 -12 -8 -58 -26 -103 -40 -44
-14 -88 -34 -98 -45 -10 -11 -28 -20 -40 -20 -12 0 -33 -8 -46 -19 -13 -10
-31 -21 -39 -24 -8 -3 -1 -6 16 -6 20 -1 34 5 38 14 3 9 18 15 38 15 18 0 45
6 59 14 14 7 39 16 55 20 16 4 36 13 44 21 8 7 37 15 63 18 26 2 57 13 68 23
12 10 41 19 75 22 34 3 53 9 51 16 -4 12 -28 14 -106 9z"/>
<path d="M9334 12436 c-3 -8 -27 -17 -55 -21 -39 -6 -49 -11 -49 -26 0 -13 -7
-19 -24 -19 -13 0 -26 -7 -30 -15 -3 -9 -18 -15 -34 -15 -28 0 -101 -46 -102
-63 0 -5 9 -11 20 -14 26 -7 26 -40 1 -48 -11 -3 -22 -14 -24 -23 -3 -9 -5 0
-6 20 -1 26 -6 38 -18 41 -17 4 -16 5 0 6 24 1 19 34 -6 39 -12 2 -17 -3 -17
-17 0 -17 -6 -21 -34 -21 -26 0 -36 -5 -41 -20 -5 -17 -15 -20 -64 -20 -42 0
-62 -5 -72 -16 -7 -9 -22 -20 -34 -24 -15 -7 -11 -9 21 -9 29 -1 46 5 59 19
13 14 29 20 49 18 29 -3 31 -6 34 -50 2 -37 0 -48 -11 -48 -8 0 -22 -10 -30
-23 -12 -19 -22 -22 -51 -19 -29 3 -41 -1 -59 -20 -32 -35 -85 -28 -101 13 -6
16 -14 29 -18 29 -4 0 -8 12 -8 26 0 20 -4 25 -16 20 -9 -3 -20 -6 -25 -6 -5
0 -9 -13 -9 -30 0 -22 5 -30 18 -31 16 0 16 -1 0 -7 -27 -11 -1 -54 40 -64 34
-9 39 -17 20 -36 -19 -19 -5 -23 73 -20 l74 3 -32 18 c-34 18 -45 47 -18 47 9
0 32 -7 52 -15 32 -14 38 -14 45 -1 4 8 21 17 38 21 16 4 32 15 35 26 4 10 13
19 21 19 8 0 14 7 14 15 0 9 9 15 21 15 12 0 23 8 26 20 3 11 12 20 19 20 8 0
14 9 14 20 0 13 7 20 19 20 10 0 21 9 24 20 3 11 12 20 20 20 8 0 17 9 20 20
3 11 12 20 21 20 16 0 23 34 9 43 -5 2 -2 2 5 0 8 -1 33 -3 57 -3 34 0 45 -4
50 -19 7 -24 -3 -49 -23 -54 -14 -4 -14 -5 2 -6 19 -1 58 34 69 63 4 9 13 16
22 16 8 0 15 6 15 14 0 8 9 17 19 21 10 3 21 15 24 25 3 11 12 20 21 20 9 0
16 8 16 20 0 22 -20 26 -38 8 -9 -9 -13 -7 -18 5 -3 9 -4 24 0 32 4 10 -1 15
-15 15 -11 0 -22 -6 -25 -14z"/>
<path d="M11461 12343 c-15 -36 -34 -68 -53 -90 -8 -10 -18 -32 -21 -49 -6
-33 -54 -94 -74 -94 -6 0 -17 8 -22 18 -7 12 -10 0 -10 -50 1 -66 -12 -106
-37 -121 -8 -4 -14 -22 -14 -38 l0 -31 30 30 c20 20 30 40 30 60 0 17 6 32 15
36 8 3 15 15 15 26 0 11 8 28 18 38 31 33 59 76 66 105 3 15 13 27 21 27 8 0
15 7 15 15 0 9 6 18 14 21 8 3 16 14 19 25 3 11 14 19 26 19 14 0 21 6 21 20
0 11 6 20 13 20 6 0 -3 9 -21 20 -18 11 -34 20 -36 20 -2 0 -9 -12 -15 -27z"/>
<path d="M15228 12315 c-12 -14 -27 -25 -34 -25 -7 0 -14 -15 -16 -32 -3 -32
-4 -33 -54 -36 -42 -2 -53 -7 -57 -22 -5 -18 1 -20 56 -22 34 -1 71 -3 82 -4
11 -1 28 -2 38 -3 9 -1 17 -8 17 -16 0 -8 9 -15 20 -15 13 0 20 7 20 20 0 11
-3 19 -7 19 -21 -3 -33 2 -33 15 0 8 -9 18 -20 21 -15 5 -20 15 -20 41 l0 34
94 0 c88 0 94 1 89 19 -6 23 -31 31 -101 31 -43 0 -56 -4 -74 -25z"/>
<path d="M13565 12305 c-33 -7 -113 -29 -177 -49 -65 -20 -133 -36 -152 -36
-18 0 -39 -7 -46 -15 -7 -9 -29 -15 -55 -15 -25 0 -48 -6 -55 -14 -6 -8 -42
-25 -78 -37 -37 -11 -81 -29 -97 -38 -17 -10 -49 -21 -71 -24 -53 -9 -184 -78
-184 -97 0 -5 -16 -14 -35 -20 -19 -6 -35 -16 -35 -21 0 -16 94 -9 135 11 22
11 47 19 55 20 9 0 24 6 35 14 11 7 36 17 55 21 19 4 44 12 55 18 30 16 148
57 165 57 8 0 32 9 53 20 20 11 47 20 59 20 13 0 43 9 67 20 24 11 53 20 65
20 11 0 35 9 51 20 17 11 39 20 50 20 28 0 182 45 241 70 28 12 44 24 38 30
-17 16 -79 19 -139 5z"/>
<path d="M14160 12302 c-8 -3 -32 -23 -53 -44 -21 -21 -41 -38 -46 -38 -4 0
-16 -16 -27 -35 -10 -19 -24 -35 -30 -35 -6 0 -16 -11 -22 -25 -7 -14 -20 -25
-31 -25 -10 0 -24 -7 -31 -15 -9 -10 -32 -15 -77 -15 -57 0 -65 -2 -72 -22 -7
-20 -5 -23 15 -26 13 -2 29 -13 35 -24 10 -18 8 -25 -7 -38 -11 -9 -25 -26
-32 -38 -10 -19 -10 -22 3 -22 8 0 15 7 15 15 0 8 9 19 20 25 11 6 20 15 20
20 0 15 42 60 56 60 6 0 14 7 17 14 3 8 22 18 42 22 21 4 53 21 73 40 20 19
47 37 60 40 15 4 22 14 22 30 0 13 9 29 20 36 13 9 20 24 20 45 0 20 7 36 17
42 21 11 15 21 -7 13z"/>
<path d="M8235 12292 c-14 -15 -1 -39 26 -49 31 -12 31 -13 15 -35 -17 -24
-18 -27 -32 -73 -6 -20 -17 -31 -32 -33 -25 -4 -28 -12 -10 -30 9 -9 7 -12 -9
-12 -16 0 -20 5 -16 19 4 15 -3 19 -47 25 l-51 7 3 37 c4 49 -25 53 -30 4 -2
-24 -11 -36 -33 -47 -24 -13 -29 -22 -29 -50 0 -33 2 -35 35 -35 22 0 43 -8
56 -21 19 -19 28 -20 100 -14 75 7 79 6 79 -13 0 -13 8 -22 23 -25 19 -4 18
-4 -5 -6 -33 -1 -39 -30 -8 -38 11 -3 20 -12 20 -19 0 -8 11 -19 25 -24 14 -5
25 -14 25 -20 0 -5 13 -10 30 -10 23 0 31 -5 36 -25 3 -14 13 -25 20 -25 8 0
18 -8 21 -17 4 -9 15 -25 25 -35 13 -13 18 -33 18 -78 0 -53 2 -60 20 -60 13
0 20 -7 20 -19 0 -10 9 -21 20 -24 14 -4 20 -14 20 -36 0 -16 6 -34 13 -38 8
-4 16 -16 20 -25 6 -17 63 -38 105 -38 28 0 30 30 2 48 -13 8 -20 23 -20 41 0
21 -6 32 -20 36 -15 5 -20 15 -20 40 0 25 -5 34 -21 38 -18 5 -21 11 -17 37 4
27 1 33 -20 41 -19 7 -23 15 -19 35 3 20 -1 27 -19 34 -13 5 -24 17 -24 25 0
9 -4 14 -8 11 -12 -7 -52 40 -52 60 0 9 -9 18 -19 21 -24 6 -32 25 -21 44 6 9
35 14 92 17 45 1 84 5 87 7 5 6 -114 9 -221 5 -72 -2 -78 0 -78 18 0 11 -7 25
-15 32 -8 7 -15 23 -15 36 0 19 -5 24 -27 25 -26 0 -26 1 -7 9 12 5 25 13 29
19 11 18 35 12 35 -9 0 -16 7 -20 30 -20 23 0 30 4 30 20 0 13 6 20 18 19 10
0 12 -3 5 -6 -7 -2 -13 -11 -13 -19 0 -10 14 -14 55 -14 50 0 55 2 55 22 l0
22 22 -24 21 -23 19 23 c27 33 23 56 -12 69 -24 8 -30 16 -30 40 0 29 -3 31
-36 31 -32 0 -34 -1 -20 -16 17 -16 19 -27 10 -59 -9 -36 -74 -53 -74 -19 0 8
-4 14 -10 14 -5 0 -10 -7 -10 -15 0 -9 -9 -15 -24 -15 -21 0 -25 6 -31 41 -8
47 1 61 42 63 21 2 29 8 31 25 4 22 2 23 -40 17 -42 -6 -45 -5 -44 16 1 19 -4
23 -31 24 -18 1 -35 -1 -38 -4z"/>
<path d="M12454 12282 c-6 -4 -14 -19 -18 -34 -3 -16 -13 -28 -21 -28 -10 0
-15 -10 -15 -31 0 -22 -5 -32 -20 -36 -11 -3 -20 -14 -20 -24 0 -11 -9 -28
-20 -39 -11 -11 -20 -29 -20 -40 0 -13 -7 -20 -20 -20 -16 0 -20 -7 -20 -34 0
-26 -5 -36 -20 -41 -11 -3 -20 -13 -20 -22 0 -24 -53 -133 -65 -133 -21 0 -46
-41 -52 -85 -3 -25 -12 -50 -19 -56 -8 -6 -14 -18 -14 -25 0 -8 -9 -19 -20
-26 -12 -8 -20 -24 -20 -40 0 -17 -8 -33 -20 -40 -15 -10 -20 -24 -20 -55 0
-32 -5 -46 -20 -55 -11 -7 -20 -22 -20 -33 1 -18 1 -19 11 -2 5 9 17 17 24 17
10 0 15 10 15 30 0 19 7 34 20 42 11 7 20 24 20 38 0 14 9 33 20 43 11 9 20
28 20 42 0 14 7 28 15 31 8 3 17 21 21 40 3 19 10 34 15 34 5 0 14 11 19 25 5
14 16 25 25 25 8 0 15 9 15 19 0 28 11 51 24 51 6 0 24 27 39 60 16 37 33 60
43 60 13 0 15 7 9 40 -6 36 -5 40 14 40 16 0 23 8 28 30 3 17 14 35 25 41 13
7 18 18 15 30 -3 12 2 24 14 32 10 8 21 32 25 55 4 26 12 42 20 42 8 0 14 9
14 20 0 21 -8 25 -26 12z"/>
<path d="M11047 12194 c-19 -19 -3 -325 23 -454 6 -30 12 -77 12 -105 0 -37 2
-41 5 -16 3 22 11 35 24 38 25 7 26 59 2 86 -15 16 -19 47 -24 196 -5 166 -23
274 -42 255z"/>
<path d="M13660 12023 c-8 -4 -21 -12 -28 -20 -7 -7 -35 -13 -61 -13 -26 0
-51 -4 -56 -8 -6 -5 -48 -19 -95 -31 -142 -38 -253 -72 -288 -87 -18 -8 -42
-14 -53 -14 -11 0 -33 -7 -49 -15 -16 -8 -52 -20 -80 -26 -28 -6 -64 -17 -78
-25 -15 -8 -34 -14 -42 -14 -9 0 -24 -6 -35 -14 -11 -7 -46 -19 -77 -25 -32
-7 -58 -16 -58 -21 0 -5 -17 -12 -37 -15 -59 -10 -74 -16 -68 -26 9 -14 96
-11 126 4 14 8 45 17 69 21 24 4 50 12 56 17 7 6 41 17 76 25 71 16 169 43
273 75 39 11 97 29 130 39 33 10 76 23 95 30 19 7 64 23 100 35 77 27 87 31
120 50 14 8 44 15 66 15 30 0 44 5 48 17 10 25 -19 39 -54 26z"/>
<path d="M17343 11942 c-3 -13 -16 -23 -36 -28 -35 -7 -43 -13 -103 -71 -34
-34 -51 -43 -78 -43 -39 0 -54 -14 -36 -35 7 -9 8 -15 0 -20 -17 -10 -11 -32
10 -38 31 -8 60 3 60 23 0 10 9 22 20 25 11 3 20 13 20 21 0 8 9 14 20 14 13
0 20 7 20 20 0 13 7 20 20 20 13 0 20 7 20 20 0 16 7 20 31 20 22 0 32 5 36
20 5 17 14 20 67 20 l61 0 -3 -60 -4 -60 162 0 c175 0 190 -4 190 -54 0 -20
-5 -26 -21 -26 -15 0 -20 -5 -17 -22 4 -30 38 -37 45 -9 5 19 13 21 82 21 74
0 113 11 97 27 -4 4 -26 8 -49 8 -40 0 -42 2 -45 32 -2 24 2 34 18 43 48 26
12 32 -198 30 l-212 -1 0 31 c0 20 5 30 15 30 14 0 55 34 55 45 0 3 -12 5 -27
4 -16 0 -70 3 -121 7 -89 7 -93 6 -99 -14z"/>
<path d="M7705 11800 c-3 -5 -2 -18 3 -27 4 -10 9 -105 10 -210 2 -185 2 -193
-17 -193 -41 0 -51 25 -51 129 0 85 -3 100 -20 116 -13 11 -20 31 -20 53 0 30
-2 33 -15 22 -11 -9 -13 -16 -5 -24 5 -5 10 -33 10 -61 0 -28 5 -56 11 -62 7
-7 9 -28 5 -55 -4 -23 -8 -113 -10 -198 -1 -85 -1 -127 1 -92 3 46 8 65 20 69
25 10 43 -25 43 -82 0 -53 -12 -75 -41 -75 -10 0 -20 -6 -22 -12 -4 -10 -6
-10 -6 0 -1 6 -11 12 -22 12 -21 0 -22 -3 -17 -87 2 -49 3 -78 0 -65 -2 12 -9
22 -17 22 -18 0 -27 -40 -9 -47 18 -7 18 -52 -1 -77 -8 -11 -15 -31 -15 -46 0
-14 -9 -33 -20 -43 -11 -9 -20 -26 -20 -37 0 -12 -7 -20 -16 -20 -10 0 -15 -8
-14 -22 4 -41 0 -48 -21 -48 -12 0 -23 -8 -26 -20 -3 -11 -12 -20 -19 -20 -9
0 -14 -12 -14 -34 0 -25 -5 -36 -19 -41 -10 -3 -21 -15 -24 -25 -3 -11 -12
-20 -21 -20 -11 0 -16 -9 -16 -29 0 -21 -6 -32 -20 -36 -12 -4 -20 -15 -20
-30 0 -14 -7 -25 -19 -28 -11 -2 -21 -15 -23 -28 -2 -17 -10 -25 -29 -27 l-27
-3 -7 106 c-9 123 0 223 21 246 11 12 15 41 16 100 0 122 -1 131 -13 124 -6
-5 -8 -25 -5 -54 9 -67 -1 -77 -58 -61 l-46 13 6 38 c8 51 -1 85 -26 92 -11 3
-20 12 -20 21 0 29 -35 96 -52 102 -10 3 -18 9 -18 14 0 12 -48 60 -59 60 -12
0 -21 26 -21 56 0 14 -4 23 -9 20 -13 -8 7 -79 25 -89 9 -5 14 -26 14 -59 0
-58 31 -132 61 -149 17 -9 19 -17 13 -73 -6 -62 -6 -63 20 -70 24 -6 26 -10
26 -61 0 -42 5 -60 20 -75 11 -11 20 -33 20 -50 0 -17 -9 -39 -20 -50 -13 -13
-20 -33 -20 -57 1 -31 3 -35 11 -20 6 10 22 17 42 17 32 0 32 -1 29 -39 -3
-30 1 -44 17 -60 23 -23 27 -52 11 -80 -6 -12 -5 -24 3 -35 11 -15 14 -15 35
-1 12 9 22 23 22 31 0 8 7 14 15 14 8 0 15 4 15 8 0 13 56 72 68 72 6 0 16 9
22 20 6 12 21 20 36 20 17 0 27 8 33 24 5 13 17 26 25 29 11 4 16 19 16 44 0
32 7 44 39 73 33 29 39 39 34 63 -5 23 -2 29 16 34 18 5 21 12 21 64 0 52 2
59 20 59 15 0 20 7 20 29 0 16 7 35 16 42 14 11 22 10 55 -8 42 -23 49 -21 49
13 0 17 7 25 25 30 32 8 32 22 1 34 -31 12 -39 39 -30 103 4 29 6 66 6 84 -1
18 6 40 16 49 14 14 16 33 14 96 -3 71 -1 78 17 78 26 0 31 18 31 120 0 105
-8 150 -26 150 -11 0 -14 22 -14 99 0 91 -9 127 -25 101z"/>
<path d="M17230 11725 c0 -15 -6 -25 -14 -25 -8 0 -21 -12 -28 -27 -10 -21
-22 -29 -46 -31 -26 -3 -32 -7 -32 -28 0 -30 13 -31 41 -3 20 20 28 21 106 15
46 -4 127 -4 179 0 83 6 94 9 94 25 0 18 -10 19 -147 19 -106 1 -143 4 -130
11 21 13 22 55 1 63 -23 9 -24 8 -24 -19z"/>
<path d="M13015 11613 c-16 -3 -37 -11 -45 -18 -8 -7 -44 -16 -80 -20 -35 -4
-75 -14 -87 -22 -12 -8 -26 -12 -31 -9 -11 7 -133 -13 -147 -24 -5 -4 -28 -13
-50 -20 -22 -7 -67 -27 -100 -45 -33 -18 -82 -35 -108 -38 -27 -4 -60 -16 -74
-27 -14 -11 -31 -20 -37 -20 -6 0 -17 -9 -24 -20 -7 -12 -23 -20 -41 -20 -17
0 -31 -6 -35 -16 -11 -29 5 -34 42 -15 81 42 143 64 341 121 40 11 85 27 100
34 14 8 71 25 126 40 55 14 129 33 165 42 36 10 79 23 95 29 17 7 61 16 98 20
40 4 67 11 65 17 -4 11 -123 19 -173 11z"/>
<path d="M8680 11381 c0 -10 9 -21 20 -24 15 -4 20 -14 20 -40 0 -26 5 -36 20
-40 17 -4 20 -14 20 -56 0 -39 4 -51 15 -51 9 0 18 -7 22 -16 3 -9 13 -14 24
-11 11 3 19 1 19 -4 0 -5 -9 -9 -20 -9 -13 0 -20 -7 -20 -19 0 -10 9 -21 20
-24 15 -4 20 -14 20 -36 0 -21 5 -31 15 -31 9 0 15 -9 15 -24 0 -16 7 -27 20
-31 11 -3 20 -12 20 -18 0 -7 9 -18 20 -25 13 -8 20 -23 20 -42 0 -20 5 -30
15 -30 8 0 15 -6 15 -14 0 -8 11 -17 25 -20 14 -4 25 -13 25 -21 0 -8 13 -15
33 -17 27 -3 32 -7 35 -33 2 -16 -2 -46 -8 -66 -14 -42 -7 -89 14 -89 8 0 17
15 20 34 7 38 24 46 94 46 36 0 42 -3 42 -21 0 -12 8 -23 20 -26 17 -4 20 -14
20 -54 0 -42 -3 -49 -20 -49 -13 0 -20 -7 -20 -20 0 -11 6 -20 14 -20 7 0 28
-3 45 -6 30 -6 31 -5 31 26 0 23 5 33 20 37 16 4 19 13 18 49 0 36 -4 44 -19
44 -13 0 -19 -8 -20 -22 -1 -21 -2 -21 -6 -3 -3 11 -11 24 -19 28 -8 4 -14 15
-14 22 0 8 -7 15 -16 15 -9 0 -18 9 -21 20 -3 11 -14 20 -24 20 -10 0 -23 9
-29 20 -6 11 -19 20 -29 20 -10 0 -24 7 -31 15 -7 8 -20 15 -30 15 -13 0 -16
6 -13 24 4 17 0 25 -16 29 -12 3 -21 12 -21 20 0 8 -9 17 -20 20 -11 3 -20 12
-20 21 0 9 -7 16 -15 16 -9 0 -19 8 -22 18 -4 9 -15 23 -25 30 -10 7 -18 24
-18 36 0 15 -7 26 -20 29 -12 3 -20 14 -20 26 0 12 -6 21 -15 21 -9 0 -15 9
-15 23 0 38 -12 67 -26 67 -8 0 -14 10 -14 24 0 35 -10 56 -26 56 -9 0 -14 11
-14 29 0 23 -5 30 -22 33 -19 2 -22 8 -20 35 2 24 -1 33 -17 38 -12 3 -21 11
-21 16 0 5 -11 9 -25 9 -18 0 -25 -5 -25 -19z"/>
<path d="M19330 11380 c0 -13 -7 -20 -20 -20 -11 0 -20 -7 -20 -15 0 -8 -7
-15 -15 -15 -9 0 -18 7 -21 15 -4 8 -15 15 -25 15 -16 0 -19 -8 -19 -50 0 -38
-5 -54 -20 -67 -14 -12 -20 -30 -20 -60 0 -36 -3 -43 -20 -43 -22 0 -24 -12
-14 -97 6 -48 8 -51 26 -42 16 9 19 19 16 55 -2 35 0 44 13 44 12 0 18 13 23
42 4 24 15 47 26 55 12 9 20 26 20 42 0 16 7 31 15 35 8 3 15 15 15 26 0 13 7
20 20 20 13 0 20 7 20 20 0 18 7 20 55 20 40 0 55 -4 55 -14 0 -7 9 -16 20
-19 17 -4 20 -14 20 -62 0 -48 3 -56 18 -53 13 2 18 15 20 56 3 47 1 54 -17
59 -12 3 -21 11 -21 17 0 7 -9 22 -20 34 -17 17 -32 22 -75 22 -48 0 -55 -2
-55 -20z"/>
<path d="M13206 11361 c-3 -5 -27 -12 -53 -15 -56 -8 -137 -30 -208 -56 -27
-10 -72 -21 -100 -25 -27 -4 -60 -15 -73 -26 -18 -14 -41 -19 -83 -19 -47 0
-59 -3 -59 -16 0 -13 11 -14 83 -8 45 3 89 10 98 15 8 4 40 11 70 15 30 4 65
12 79 19 14 7 45 16 70 20 25 4 63 15 85 25 22 9 53 21 70 24 16 4 33 13 37
19 4 6 24 17 45 23 l38 12 -47 1 c-26 1 -49 -3 -52 -8z"/>
<path d="M17158 11182 c-26 -2 -39 -9 -43 -23 -4 -10 -12 -19 -20 -19 -15 0
-23 -25 -17 -57 4 -22 9 -23 83 -23 l79 0 0 -32 c0 -25 -3 -29 -12 -20 -17 17
-123 15 -138 -3 -6 -8 -9 -19 -5 -25 8 -12 142 -14 149 -1 4 5 22 5 43 0 21
-5 66 -9 100 -9 53 0 63 3 68 20 6 17 15 20 76 20 70 0 85 10 57 38 -18 18
-43 15 -63 -8 -15 -16 -31 -20 -88 -20 -51 0 -75 -5 -88 -16 -25 -23 -49 -11
-49 25 0 40 24 61 68 61 35 1 36 2 18 15 -14 11 -23 12 -33 4 -16 -14 -152
-13 -188 1 -38 15 -28 42 19 55 46 13 38 22 -16 17z"/>
<path d="M4811 11168 c0 -9 -7 -21 -15 -25 -8 -4 -21 -24 -30 -43 -22 -49 -75
-142 -91 -160 -8 -8 -18 -26 -24 -40 -6 -14 -15 -32 -19 -40 -9 -15 -49 -100
-71 -150 -6 -14 -20 -38 -31 -55 -11 -16 -26 -42 -32 -58 -7 -15 -20 -29 -28
-32 -12 -4 -15 -14 -12 -34 2 -17 -2 -34 -12 -44 -9 -9 -19 -29 -22 -46 -4
-17 -14 -31 -25 -34 -13 -3 -19 -14 -19 -31 0 -14 3 -26 8 -26 12 1 52 70 52
92 0 11 8 22 20 25 12 3 20 14 20 28 0 12 9 30 20 40 11 10 20 26 20 35 0 9 9
25 20 35 11 10 20 26 20 36 0 10 5 21 11 25 6 3 17 22 25 40 8 19 18 34 23 34
5 0 12 14 16 31 4 17 13 33 20 35 7 3 16 21 20 40 3 19 13 38 21 41 8 3 14 18
14 34 0 18 8 34 20 41 12 8 20 24 20 39 0 14 9 34 20 44 11 10 20 31 20 46 0
15 7 32 16 37 10 6 14 18 11 33 -2 13 -5 16 -6 7z"/>
<path d="M12257 11090 c-14 -11 -34 -20 -44 -20 -10 0 -28 -7 -40 -15 -11 -8
-53 -20 -94 -26 -63 -11 -109 -33 -109 -54 0 -12 72 -3 149 20 78 23 90 24
144 13 57 -12 60 -11 77 10 15 18 28 22 73 22 65 0 87 7 87 26 0 10 14 14 53
14 28 0 62 3 74 6 40 11 14 24 -47 24 -42 0 -63 -5 -76 -17 -12 -12 -38 -19
-86 -21 -64 -4 -68 -3 -68 17 0 17 -6 21 -34 21 -18 0 -45 -9 -59 -20z"/>
<path d="M6790 10955 c0 -8 -9 -15 -20 -15 -15 0 -20 -7 -20 -25 0 -20 5 -25
25 -25 14 0 25 -4 25 -10 0 -5 7 -10 15 -10 8 0 15 -8 14 -17 0 -11 -3 -13 -6
-5 -2 6 -11 12 -19 12 -11 0 -14 -17 -14 -73 0 -66 2 -73 20 -74 15 -1 20 4
20 22 0 18 4 22 20 18 18 -5 20 0 20 56 0 48 -3 61 -15 61 -11 0 -15 11 -15
40 0 29 -5 42 -19 50 -26 13 -31 13 -31 -5z"/>
<path d="M14251 10946 c-57 -10 -62 -13 -47 -26 10 -7 44 -16 76 -18 47 -3 59
-8 63 -23 3 -12 14 -19 29 -19 15 0 25 -6 25 -15 0 -8 -4 -12 -10 -8 -5 3 -7
-5 -5 -18 3 -27 38 -40 38 -15 0 9 4 16 10 16 5 0 7 -7 4 -15 -5 -12 5 -15 60
-15 52 0 66 3 66 15 0 9 -12 18 -30 21 -40 9 -54 27 -40 54 9 17 8 21 -7 27
-10 3 -25 12 -33 18 -14 12 -111 37 -128 34 -4 -1 -36 -7 -71 -13z"/>
<path d="M12856 10882 c-2 -1 -43 -4 -92 -7 -69 -3 -91 -8 -101 -22 -10 -12
-31 -18 -78 -21 -46 -3 -69 -9 -81 -23 -11 -13 -31 -19 -57 -19 -26 0 -44 -6
-52 -17 -9 -11 -32 -18 -76 -21 -42 -3 -72 -11 -88 -23 -15 -12 -40 -19 -67
-19 -31 0 -44 -4 -44 -14 0 -8 -6 -17 -12 -19 -7 -3 -3 -6 8 -6 12 -1 27 6 34
14 8 9 30 15 56 15 31 0 50 6 64 20 15 15 33 20 79 20 43 0 60 4 65 15 7 19
66 21 66 2 0 -17 -21 -43 -40 -50 -10 -4 -7 -6 7 -6 14 -1 29 9 39 24 9 14 19
24 21 21 3 -2 17 9 32 26 24 27 34 31 100 35 47 3 84 11 106 24 26 16 48 19
107 18 71 -3 98 3 98 21 0 7 -88 19 -94 12z"/>
<path d="M8340 10766 l-35 -21 142 -3 c130 -2 144 -4 153 -22 13 -24 90 -29
90 -6 0 19 22 26 83 26 39 0 48 3 39 12 -7 7 -41 11 -92 9 -64 -1 -82 2 -86
14 -9 21 -62 19 -109 -5 -51 -26 -119 -27 -137 -2 -13 18 -14 18 -48 -2z"/>
<path d="M8877 10650 c-4 -15 -14 -20 -36 -20 -18 0 -31 -5 -31 -12 0 -9 -3
-10 -8 -2 -9 13 -108 26 -140 17 -18 -4 -23 -11 -20 -27 4 -19 0 -21 -34 -18
-33 4 -38 1 -38 -17 0 -12 6 -21 13 -21 16 0 51 -37 60 -62 4 -10 13 -18 22
-18 8 0 15 -4 15 -8 0 -5 10 -14 23 -20 16 -8 18 -11 5 -11 -9 -1 -28 -15 -43
-33 -25 -30 -26 -33 -9 -45 10 -7 32 -13 50 -13 33 0 48 -18 38 -45 -4 -10 3
-18 20 -25 29 -11 36 -47 11 -56 -8 -4 -15 -13 -15 -20 0 -44 -81 -19 -101 30
-13 31 -16 32 -46 24 -37 -10 -35 -28 5 -63 l25 -21 -23 -22 c-15 -14 -21 -28
-17 -41 3 -14 0 -21 -8 -21 -7 0 -16 -6 -18 -12 -3 -8 -6 -6 -6 5 -1 11 -12
20 -31 23 -16 4 -32 15 -35 25 -9 26 -44 23 -78 -6 -25 -23 -27 -27 -18 -67
11 -48 1 -68 -34 -68 -14 0 -25 -7 -28 -20 -3 -13 -14 -20 -31 -20 -15 0 -30
-8 -36 -20 -7 -13 -21 -20 -40 -20 -23 0 -30 -4 -30 -20 0 -11 -5 -20 -11 -20
-6 0 -9 -9 -6 -20 3 -11 1 -23 -4 -26 -5 -3 -9 6 -9 20 0 22 -5 26 -29 26 -16
0 -31 -6 -35 -15 -3 -9 -18 -15 -39 -15 -63 0 -97 -11 -97 -31 0 -17 -6 -18
-62 -13 -35 4 -68 13 -74 20 -15 19 -21 18 -27 -6 -4 -17 -10 -20 -33 -14 -55
14 -124 104 -80 104 8 0 17 9 21 19 5 16 17 21 57 23 49 3 52 5 60 34 7 26 14
33 43 38 43 8 55 2 55 -30 0 -19 -6 -26 -30 -31 -17 -3 -32 -9 -35 -13 -5 -8
23 -50 34 -50 4 0 27 28 52 61 l44 61 112 -4 111 -5 17 43 c14 36 23 46 61 60
40 15 44 20 44 50 0 23 5 34 14 34 8 0 19 14 25 30 7 23 16 30 35 30 19 0 26
5 26 20 0 16 -7 20 -34 20 -26 0 -36 5 -41 19 -7 24 -39 36 -61 23 -9 -5 -25
-7 -35 -5 -12 4 -19 0 -19 -9 0 -14 -25 -48 -70 -94 -11 -12 -20 -26 -20 -33
0 -7 -20 -11 -55 -11 -48 0 -55 -2 -55 -20 0 -14 -7 -20 -21 -20 -29 0 -48
-27 -49 -68 0 -30 -2 -31 -20 -20 -11 7 -20 20 -20 29 0 11 -12 19 -35 23 -39
8 -55 2 -55 -20 0 -13 -13 -19 -34 -15 -26 5 -56 -11 -56 -29 0 -15 -7 -20
-25 -20 -13 0 -28 -7 -33 -16 -7 -12 -17 -15 -36 -10 -24 6 -26 10 -26 65 0
39 5 63 15 71 8 7 17 27 21 46 3 19 10 34 14 34 4 0 12 11 18 25 15 32 16 109
2 100 -5 -3 -10 -21 -10 -40 0 -19 -6 -35 -14 -38 -7 -3 -19 -28 -26 -56 -7
-28 -16 -51 -20 -51 -5 0 -11 -13 -15 -29 -3 -16 -13 -32 -21 -35 -8 -3 -14
-17 -14 -31 0 -14 -9 -33 -20 -42 -12 -11 -20 -30 -20 -50 0 -22 -6 -36 -20
-43 -11 -6 -20 -20 -20 -30 0 -11 -11 -30 -25 -42 -14 -12 -25 -27 -25 -34 0
-6 -7 -14 -15 -18 -8 -3 -15 -9 -14 -13 5 -31 -3 -56 -21 -60 -15 -4 -20 -14
-20 -40 0 -26 -5 -36 -19 -40 -15 -4 -19 -14 -19 -49 0 -58 -6 -64 -58 -64
-32 0 -44 4 -44 15 0 8 -9 15 -20 15 -16 0 -20 7 -20 30 0 24 -4 30 -17 28
-23 -4 -33 -17 -33 -45 0 -18 6 -23 24 -23 13 0 30 -8 37 -17 10 -11 10 -14 2
-9 -9 5 -13 -1 -13 -18 0 -32 27 -35 33 -3 4 21 4 21 6 1 1 -19 9 -22 57 -26
54 -5 59 -3 88 27 17 17 48 44 68 59 21 15 40 36 43 47 4 10 15 19 26 19 15 0
19 7 19 35 0 43 -17 46 -50 8 -22 -25 -23 -26 -36 -8 -21 28 -17 43 16 77 33
32 60 32 60 -1 0 -11 5 -23 10 -26 6 -3 10 -16 10 -29 0 -33 19 -46 70 -47 29
-1 35 -3 18 -6 -20 -3 -28 -10 -28 -24 0 -17 7 -19 60 -19 54 0 60 -2 60 -21
0 -17 5 -20 37 -17 26 2 39 8 41 20 2 13 -6 18 -35 21 l-38 4 43 1 c35 2 42 5
42 22 0 17 -7 20 -50 20 -45 0 -52 3 -60 25 -8 22 -15 25 -59 25 -46 0 -49 1
-55 31 -8 41 -3 47 48 54 33 5 52 2 82 -14 26 -14 57 -21 96 -21 31 0 60 -4
63 -10 4 -6 13 -5 25 3 15 9 25 9 38 1 21 -14 19 -91 -5 -142 -14 -32 -18 -34
-57 -30 l-42 3 14 -27 c12 -24 19 -28 57 -28 34 0 47 5 55 20 9 16 21 20 66
20 47 0 57 3 61 20 4 15 14 20 39 20 27 0 34 4 34 20 0 16 7 20 36 20 22 0 41
6 48 15 8 11 37 17 99 22 59 4 87 10 87 18 0 7 9 15 19 18 13 3 21 15 23 38 2
28 8 35 36 43 17 5 32 15 32 22 0 8 11 14 25 14 18 0 25 5 25 20 0 11 7 20 15
20 8 0 19 9 25 20 6 11 17 20 25 20 7 0 17 9 20 20 5 16 15 20 55 20 33 0 50
5 54 15 3 8 12 15 21 15 8 0 15 8 15 19 0 10 8 21 18 23 14 4 17 13 14 41 -3
31 -1 36 20 39 19 2 22 8 20 32 -2 17 -9 35 -17 40 -16 13 -27 76 -17 93 12
18 59 33 108 33 36 0 44 3 44 19 0 15 -10 20 -57 26 -78 10 -101 20 -109 49
-5 20 -14 26 -50 32 -28 4 -44 11 -44 20 0 8 -8 18 -17 21 -25 9 -73 56 -73
70 0 16 32 33 63 33 18 0 27 7 31 25 6 22 9 24 27 15 11 -6 33 -8 49 -5 16 3
44 2 64 -3 33 -10 35 -9 45 19 9 26 14 29 55 29 33 0 46 4 46 14 0 21 -23 26
-110 26 -69 0 -78 -2 -83 -20z m-9 -502 c19 -19 14 -49 -8 -55 -11 -3 -20 -12
-20 -19 0 -8 -11 -19 -25 -24 -14 -5 -25 -14 -25 -20 0 -5 -7 -10 -15 -10 -22
0 -55 -37 -55 -60 0 -17 -7 -20 -41 -20 -43 0 -68 -19 -69 -52 0 -27 -29 -48
-66 -48 -31 0 -34 2 -34 30 0 18 6 33 15 36 10 4 15 20 15 45 0 28 5 41 20 49
11 6 20 17 20 24 0 17 22 26 48 20 14 -4 21 0 25 15 4 16 13 21 36 21 20 0 34
7 41 20 6 11 17 20 24 20 8 0 16 9 19 20 4 16 14 20 44 20 21 0 44 -5 51 -12z
m-528 -273 c0 -24 3 -25 55 -25 37 0 55 -4 56 -12 1 -15 -3 -74 -7 -103 -1
-11 -3 -23 -3 -27 -1 -4 -25 -4 -55 -1 -48 5 -55 3 -65 -16 -10 -17 -21 -21
-61 -21 -43 0 -50 -3 -50 -20 0 -20 -8 -24 -47 -21 -14 2 -24 -5 -28 -18 -5
-17 -15 -21 -50 -21 -26 0 -45 -5 -48 -12 -2 -7 -7 -10 -11 -6 -4 3 -2 16 4
28 7 13 9 37 6 54 -4 22 -3 27 4 16 8 -13 10 -12 10 3 0 11 10 20 30 24 21 4
30 11 30 24 0 12 7 19 19 19 10 0 21 9 24 20 4 15 14 20 41 20 25 0 36 4 36
15 0 8 8 15 19 15 24 0 54 46 48 71 -4 15 0 19 19 19 19 0 24 -5 24 -25z"/>
<path d="M6837 10583 c-4 -3 -7 -17 -7 -31 0 -15 -7 -26 -20 -29 -18 -5 -20
-14 -20 -109 0 -95 -2 -104 -19 -104 -22 0 -29 -22 -21 -70 6 -36 -12 -90 -30
-90 -6 0 -10 -16 -10 -35 0 -28 4 -35 20 -35 11 0 20 -6 20 -14 0 -7 9 -16 20
-19 11 -3 20 -12 20 -21 0 -9 7 -16 15 -16 8 0 15 -9 15 -20 0 -16 7 -20 35
-20 28 0 35 -4 35 -19 0 -17 7 -20 50 -19 42 0 50 3 50 19 0 16 -7 19 -44 19
-66 0 -75 7 -92 69 -9 31 -22 63 -30 71 -11 13 -11 25 2 75 11 40 14 82 11
127 -5 60 -4 68 13 73 10 3 21 14 24 23 4 14 2 130 -3 170 -1 13 -23 16 -34 5z"/>
<path d="M16986 10415 c-23 -35 -21 -82 4 -90 11 -4 20 -15 20 -27 0 -16 5
-19 24 -14 12 3 26 3 29 0 10 -10 -17 -44 -35 -44 -13 0 -18 -8 -18 -25 0 -34
42 -35 58 -1 8 18 16 22 35 19 19 -4 27 0 31 15 4 11 19 22 36 26 18 3 30 12
30 21 0 8 10 16 23 16 37 3 -84 17 -151 18 l-62 1 6 55 c7 60 -3 71 -30 30z"/>
<path d="M13318 10393 c-10 -2 -18 -11 -18 -19 0 -8 -9 -14 -19 -14 -11 0 -23
-9 -26 -20 -3 -11 -13 -20 -21 -20 -8 0 -14 -9 -14 -20 0 -13 -7 -20 -20 -20
-17 0 -20 -7 -20 -39 0 -30 -4 -40 -20 -44 -11 -3 -20 -12 -20 -21 0 -11 -9
-16 -27 -16 -14 0 -33 -7 -42 -15 -48 -43 -59 -52 -74 -58 -24 -9 -21 -37 3
-37 11 0 20 6 20 14 0 8 16 16 40 20 26 4 40 11 40 21 0 11 11 15 39 15 30 0
42 5 55 25 15 24 21 25 66 19 46 -6 50 -5 50 15 0 16 -6 21 -26 21 -14 0 -34
5 -45 10 -25 14 -26 60 0 67 11 3 21 13 24 24 3 10 12 19 21 19 9 0 16 8 16
20 0 11 6 20 14 20 7 0 16 9 19 20 3 11 4 19 4 19 -1 -1 -10 -3 -19 -6z"/>
<path d="M20056 10245 c-4 -14 -13 -25 -21 -25 -11 0 -15 -11 -15 -40 0 -33
-3 -40 -20 -40 -18 0 -20 -7 -20 -59 0 -50 -3 -59 -20 -64 -17 -4 -20 -14 -20
-55 0 -42 -3 -52 -20 -57 -16 -5 -20 -15 -20 -46 0 -36 2 -40 23 -37 17 2 23
11 25 38 2 19 10 39 18 43 9 5 14 26 14 61 0 40 5 57 20 71 13 12 20 31 20 54
0 24 7 42 20 54 11 9 20 28 20 42 0 18 5 25 20 25 16 0 20 7 20 30 0 39 -35
43 -44 5z"/>
<path d="M6342 10252 c-17 -3 -22 -9 -20 -25 2 -14 -4 -26 -17 -33 -11 -6 -19
-15 -18 -21 1 -5 -8 -8 -21 -6 -15 3 -32 -3 -49 -19 -43 -39 -56 -48 -71 -48
-8 0 -18 -9 -21 -20 -3 -11 -12 -20 -20 -20 -7 0 -15 -9 -18 -20 -3 -11 -12
-20 -21 -20 -9 0 -16 -7 -16 -16 0 -9 -9 -18 -20 -21 -11 -3 -20 -14 -20 -24
0 -12 -7 -19 -20 -19 -14 0 -20 -7 -20 -23 0 -13 -9 -32 -20 -42 -11 -10 -20
-27 -20 -37 0 -10 -7 -21 -15 -24 -11 -4 -15 -21 -15 -55 0 -37 -4 -49 -15
-49 -9 0 -19 -10 -24 -22 -6 -18 -8 -161 -2 -245 1 -7 10 -13 22 -13 18 0 20
-5 17 -42 -2 -38 0 -43 20 -46 18 -3 22 -10 22 -38 0 -24 5 -34 15 -34 8 0 15
-7 15 -16 0 -9 9 -18 20 -21 10 -3 22 -13 25 -23 3 -10 12 -21 20 -24 8 -3 15
-12 15 -20 0 -7 9 -16 20 -19 11 -3 20 -12 20 -21 0 -9 7 -16 15 -16 8 0 15
-7 15 -15 0 -8 6 -16 13 -16 6 -1 17 -2 22 -4 6 -1 20 -3 32 -3 13 -1 22 -8
20 -14 -1 -8 10 -14 27 -16 16 -2 30 -11 33 -21 2 -9 17 -22 34 -28 26 -10 28
-15 23 -42 l-6 -31 55 0 c48 0 57 -3 62 -21 5 -16 12 -19 30 -15 17 4 27 0 39
-19 9 -14 25 -25 35 -25 10 0 24 -7 31 -15 7 -8 23 -15 35 -15 18 0 22 4 18
20 -3 11 -16 23 -28 26 -13 3 -25 15 -28 26 -4 13 -13 19 -29 18 -39 -4 -48
-1 -48 15 0 8 -9 15 -20 15 -20 0 -24 12 -21 56 2 25 -27 36 -70 27 -24 -5
-30 -1 -39 21 -6 18 -17 26 -34 26 -13 0 -26 7 -30 15 -3 8 -16 15 -30 15 -15
0 -25 7 -29 20 -3 12 -14 20 -27 20 -12 0 -36 15 -53 33 -23 24 -31 42 -33 75
-1 24 -9 51 -17 60 -8 9 -20 44 -26 77 -5 33 -15 83 -20 110 -5 28 -10 73 -10
102 -1 28 -4 59 -7 68 -6 14 -8 13 -21 -5 -25 -36 -45 -25 -41 22 2 35 8 45
31 56 25 12 67 79 67 108 0 7 11 25 25 40 14 15 25 31 25 36 0 16 53 59 69 56
8 -2 18 -17 23 -35 6 -21 15 -33 31 -36 l22 -4 -22 -2 c-16 -1 -23 -7 -23 -21
0 -10 -8 -27 -19 -37 -12 -12 -20 -38 -24 -83 -3 -39 -11 -68 -20 -75 -17 -13
-33 -250 -17 -260 11 -7 13 7 10 90 -1 48 3 66 19 86 15 20 21 44 23 100 3 69
5 74 26 77 35 5 72 -34 73 -77 l1 -36 9 35 c5 19 10 69 11 110 1 41 7 78 12
82 23 16 64 7 104 -23 53 -38 64 -75 32 -99 -27 -20 -22 -33 19 -50 33 -13 81
-98 81 -144 0 -15 7 -29 15 -32 8 -4 15 -11 15 -17 0 -6 8 -20 19 -31 33 -36
36 -64 8 -77 -20 -9 -24 -18 -25 -62 -1 -29 -2 -68 -3 -87 -3 -57 13 -224 23
-242 5 -10 16 -18 24 -18 13 0 15 -7 10 -35 -9 -44 0 -75 21 -75 12 0 14 9 11
40 -2 22 -1 40 3 40 5 0 23 160 20 185 -1 6 -3 65 -5 133 -4 115 -3 122 15
122 21 0 23 11 13 109 -6 53 -10 61 -28 62 -18 1 -18 2 -3 6 26 7 37 44 37
124 0 62 -2 69 -20 69 -17 0 -20 7 -20 45 0 38 -3 45 -20 45 -11 0 -20 -4 -20
-10 0 -5 -8 -10 -19 -10 -13 0 -20 10 -24 37 -4 20 -4 39 -2 42 3 2 5 -3 5
-12 0 -10 8 -17 20 -17 13 0 20 7 20 20 0 11 -7 20 -15 20 -8 0 -15 9 -15 20
0 11 -6 20 -12 20 -7 0 -29 18 -48 40 -19 22 -43 40 -52 40 -10 0 -18 7 -18
15 0 10 -10 15 -31 15 -22 0 -32 5 -36 20 -3 11 -13 20 -23 20 -19 0 -46 27
-37 37 4 3 2 14 -4 24 -7 15 -6 19 5 19 16 0 31 30 19 40 -4 3 -18 4 -31 2z
m58 -191 c0 -10 7 -21 15 -25 8 -3 15 -12 15 -21 0 -8 6 -15 13 -15 6 0 28
-18 47 -40 19 -22 41 -40 48 -40 7 0 12 -14 12 -35 0 -29 4 -35 21 -35 20 0
21 -4 17 -60 -4 -54 -2 -59 16 -62 19 -3 21 -9 19 -75 -1 -40 -7 -82 -13 -94
-11 -20 -12 -20 -24 -2 -7 10 -16 46 -20 80 -7 63 -37 146 -62 171 -8 7 -14
22 -14 33 0 10 -7 19 -15 19 -9 0 -20 11 -25 24 -5 14 -19 26 -32 28 -14 2
-29 16 -40 37 -20 41 -54 81 -68 81 -11 0 -14 33 -3 43 3 4 26 7 50 7 36 0 43
-3 43 -19z"/>
<path d="M13770 10243 c-8 -3 -19 -12 -23 -19 -5 -9 -27 -14 -61 -14 -45 0
-54 -3 -59 -20 -3 -12 -14 -20 -26 -20 -26 0 -27 -16 -2 -30 32 -16 62 -12 68
10 3 11 13 20 23 20 10 0 21 6 23 13 4 10 6 10 6 0 1 -8 16 -13 39 -13 27 0
41 -6 50 -20 12 -19 21 -20 115 -18 88 3 102 5 105 21 3 15 -5 17 -62 17 -53
0 -67 3 -75 18 -6 10 -6 24 -1 32 5 8 6 18 4 22 -6 9 -101 10 -124 1z"/>
<path d="M14190 10225 c-8 -9 -30 -15 -56 -15 -37 0 -44 -3 -44 -20 0 -26 46
-28 53 -2 4 16 5 16 6 0 1 -14 10 -18 36 -18 28 0 35 -4 35 -20 0 -19 7 -20
128 -20 121 0 128 1 129 20 2 19 -4 20 -87 20 -108 0 -140 10 -140 45 0 20 -5
25 -24 25 -13 0 -29 -7 -36 -15z"/>
<path d="M13512 10153 c-7 -11 -27 -18 -66 -21 -46 -4 -56 -8 -56 -23 0 -16
-8 -19 -51 -19 -36 0 -58 -6 -76 -20 l-26 -20 257 0 c240 0 257 1 254 18 -3
14 -17 17 -96 20 l-92 3 0 39 c0 33 -3 40 -20 40 -10 0 -23 -7 -28 -17z"/>
<path d="M14128 10123 c-28 -7 -21 -30 12 -42 24 -8 30 -16 30 -40 0 -29 -3
-31 -35 -31 -28 0 -35 -4 -35 -20 0 -19 7 -20 95 -20 75 0 95 3 95 14 0 16
-21 26 -53 26 -20 0 -22 4 -19 50 4 46 2 51 -23 60 -27 10 -38 11 -67 3z"/>
<path d="M12053 10041 c-10 -11 -35 -22 -55 -26 -21 -4 -42 -13 -49 -21 -6 -8
-17 -14 -24 -14 -6 0 -20 -9 -30 -20 -10 -11 -30 -20 -44 -20 -15 0 -31 -8
-39 -20 -8 -14 -23 -20 -47 -20 -24 0 -35 -5 -35 -15 0 -8 -15 -17 -37 -21
-21 -4 -44 -15 -51 -26 -7 -10 -24 -18 -38 -18 -13 0 -33 -9 -44 -20 -11 -11
-27 -20 -35 -20 -8 0 -15 -6 -15 -12 0 -18 -45 -58 -64 -58 -8 0 -20 -8 -25
-19 -7 -12 -26 -20 -61 -25 -33 -4 -50 -11 -50 -21 0 -7 -6 -16 -12 -18 -7 -3
5 -6 27 -6 30 -1 43 4 53 19 9 15 23 20 52 20 33 0 40 3 40 20 0 17 7 20 39
20 30 0 40 4 44 20 4 15 14 20 41 20 25 0 36 4 36 15 0 8 6 15 13 15 8 0 22 8
31 19 9 10 31 21 48 25 23 5 29 10 25 25 -3 14 0 17 15 13 12 -3 25 3 34 17 8
11 26 21 39 21 14 0 29 9 35 20 6 11 20 20 30 20 11 0 28 9 37 20 10 11 25 20
34 20 9 0 19 7 23 15 3 8 13 15 23 15 10 0 38 14 62 30 41 28 42 30 18 30 -14
0 -34 -9 -44 -19z"/>
<path d="M4098 10012 c-16 -19 -28 -44 -28 -54 0 -18 -45 -108 -59 -118 -14
-10 -51 -91 -51 -110 0 -13 -7 -20 -19 -20 -19 0 -28 -13 -63 -80 -7 -14 -18
-29 -25 -33 -7 -4 -13 -12 -13 -17 0 -6 -9 -19 -20 -30 -21 -21 -27 -60 -10
-60 6 0 10 6 10 13 0 7 10 23 23 35 46 44 78 90 121 175 15 31 32 57 37 57 5
0 15 15 23 34 8 18 19 37 25 40 6 4 11 15 11 25 0 10 7 24 15 31 8 7 15 21 15
30 0 10 11 32 25 48 18 21 23 36 18 50 -7 18 -10 17 -35 -16z"/>
<path d="M16503 9742 c-25 -2 -33 -8 -33 -23 0 -10 -4 -19 -9 -19 -5 0 -7 9
-4 20 5 18 0 20 -35 20 -31 0 -41 -4 -45 -20 -3 -12 0 -20 8 -20 8 0 11 -8 8
-20 -3 -11 -9 -20 -13 -20 -4 0 -8 -16 -8 -36 0 -30 3 -35 22 -32 13 2 20 10
20 21 -2 14 7 17 62 17 52 0 64 3 64 16 0 8 -7 22 -15 30 -21 22 -19 39 7 51
27 12 13 20 -29 15z"/>
<path d="M15853 9703 c-43 -4 -57 -23 -30 -40 8 -4 16 -16 20 -25 5 -14 18
-18 62 -18 48 0 55 -2 55 -20 0 -19 7 -20 110 -20 103 0 110 1 110 20 0 19 -7
20 -110 20 -86 0 -110 3 -110 13 0 28 -32 77 -48 75 -9 -1 -36 -3 -59 -5z"/>
<path d="M16638 9663 c-10 -3 -18 -13 -18 -23 0 -10 -9 -20 -20 -23 -14 -4
-20 -14 -20 -35 0 -36 -16 -42 -111 -42 -50 0 -68 -4 -73 -15 -4 -11 -21 -15
-66 -15 -53 0 -60 2 -60 20 0 13 -7 20 -20 20 -12 0 -20 -7 -20 -16 0 -20 -39
-53 -62 -54 -10 0 -18 -4 -18 -10 0 -6 65 -9 176 -7 145 3 178 6 185 19 6 12
29 15 101 16 51 1 125 4 164 8 67 6 72 5 87 -17 16 -21 18 -22 59 -9 77 24 74
33 -14 45 -32 4 -48 11 -48 21 0 8 6 14 14 14 19 0 40 26 27 34 -6 4 -39 4
-75 0 -51 -5 -65 -10 -69 -25 -7 -28 -77 -26 -103 2 -12 13 -15 23 -8 27 13 8
24 61 15 65 -3 2 -14 2 -23 0z"/>
<path d="M6286 9587 c-5 -45 -3 -54 14 -66 18 -12 20 -25 20 -122 0 -60 4
-109 8 -109 5 0 14 12 21 28 l13 27 30 -60 c16 -33 33 -76 37 -95 4 -23 13
-36 25 -38 15 -3 17 0 12 14 -4 11 -10 35 -13 54 -3 19 -13 43 -22 53 -11 13
-16 39 -16 84 0 50 -4 68 -17 77 -10 7 -18 18 -18 25 0 6 -12 17 -26 23 -24
11 -25 15 -22 76 3 58 1 66 -18 73 -20 7 -22 3 -28 -44z"/>
<path d="M13142 9453 c2 -12 15 -20 38 -23 26 -4 31 -7 18 -12 -13 -5 -18 -19
-18 -48 0 -45 20 -61 51 -41 15 9 19 8 19 -3 0 -17 21 -26 60 -26 15 0 33 -7
40 -15 10 -11 36 -15 112 -15 89 0 99 2 96 18 -2 13 -15 18 -55 20 -41 2 -52
7 -56 22 -4 15 -14 20 -40 20 -27 0 -37 5 -42 20 -8 26 -48 26 -66 1 -14 -20
-28 -24 -61 -22 -24 1 -26 81 -3 81 8 0 15 9 15 20 0 18 -7 20 -56 20 -47 0
-55 -3 -52 -17z"/>
<path d="M8383 9382 c-10 -11 -26 -22 -35 -25 -10 -4 -18 -13 -18 -22 0 -8 -7
-15 -15 -15 -9 0 -18 -12 -21 -30 -4 -16 -11 -30 -15 -30 -5 0 -14 -11 -20
-24 -6 -13 -20 -27 -30 -29 -11 -3 -19 -14 -19 -26 0 -12 -6 -21 -15 -21 -9 0
-15 -9 -15 -25 0 -14 -9 -30 -20 -37 -12 -8 -20 -24 -20 -39 0 -19 -6 -28 -21
-32 -19 -5 -21 -11 -16 -41 5 -30 3 -35 -16 -38 -17 -2 -22 -10 -24 -38 -1
-19 -2 -41 -2 -47 -1 -7 -7 -13 -15 -13 -20 0 -26 -23 -19 -79 6 -51 17 -57
33 -17 7 17 9 12 9 -22 1 -30 -5 -49 -19 -64 -14 -15 -20 -36 -20 -65 0 -32 5
-46 20 -55 26 -16 26 -48 1 -48 -13 0 -21 -9 -26 -30 -9 -39 2 -70 25 -70 15
0 17 -6 13 -41 -5 -35 -3 -41 16 -46 14 -3 21 -13 21 -29 0 -17 6 -24 20 -24
24 0 28 38 5 46 -23 9 -19 44 5 44 17 0 20 -7 20 -40 0 -33 3 -40 20 -40 16 0
20 -7 20 -35 0 -19 4 -35 9 -35 5 0 17 -3 26 -7 15 -5 16 -1 10 38 -4 25 -16
50 -26 57 -11 8 -19 25 -19 43 0 22 -5 29 -20 29 -18 0 -20 7 -20 54 0 39 -4
55 -15 60 -13 5 -15 21 -13 88 3 83 3 83 31 86 24 3 27 7 21 25 -4 12 -17 35
-30 50 -28 33 -33 92 -9 101 8 3 15 18 15 34 0 15 6 37 14 47 12 16 16 17 30
6 21 -18 30 -74 18 -109 -5 -16 -6 -35 -2 -42 15 -24 30 1 30 49 0 31 5 53 15
61 14 11 14 15 1 29 -18 20 -16 113 2 119 7 2 12 16 12 32 0 41 10 60 31 60
12 0 19 7 19 18 0 10 7 27 15 38 8 10 15 27 15 37 0 44 60 25 60 -19 0 -14 8
-25 20 -29 15 -5 20 -15 20 -45 0 -29 4 -39 20 -43 15 -4 20 -14 20 -36 0 -21
5 -31 15 -31 8 0 15 -4 15 -10 0 -15 58 -70 75 -70 8 0 15 -5 15 -12 0 -6 9
-3 20 7 19 18 20 17 20 -3 0 -12 5 -22 11 -22 8 0 7 -6 -2 -17 -11 -13 -12
-17 -1 -21 7 -2 17 -15 22 -28 5 -13 16 -24 25 -24 8 0 15 -6 15 -14 0 -8 9
-18 20 -21 11 -3 20 -13 20 -21 0 -8 9 -23 20 -34 11 -11 20 -31 20 -44 0 -15
7 -26 20 -29 15 -4 20 -14 20 -41 0 -22 7 -43 19 -55 16 -16 18 -34 18 -131 0
-101 -2 -113 -18 -117 -14 -4 -19 -15 -19 -38 0 -52 -11 -95 -25 -95 -17 0
-22 -26 -17 -79 l4 -43 36 6 c41 6 52 19 52 61 0 18 8 38 20 48 15 13 19 28
19 67 -1 35 4 56 16 70 23 25 23 205 0 230 -8 9 -15 35 -15 58 0 30 -6 47 -20
59 -11 10 -20 28 -20 41 0 15 -7 26 -20 29 -11 3 -20 11 -20 19 0 7 -9 18 -20
24 -13 7 -20 21 -20 39 0 20 -6 30 -20 34 -11 3 -20 12 -20 21 0 9 -5 16 -10
16 -6 0 -35 25 -65 55 -29 30 -58 55 -63 55 -6 0 -13 9 -17 19 -3 11 -12 22
-20 25 -8 3 -15 12 -15 20 0 9 -9 20 -20 26 -14 7 -20 21 -20 44 0 19 -8 40
-19 50 -13 11 -20 36 -24 79 -2 34 -12 76 -21 92 -9 17 -16 40 -16 53 0 18 -6
22 -30 22 -16 0 -37 -8 -47 -18z"/>
<path d="M3690 9355 c0 -8 -9 -22 -19 -32 -11 -10 -22 -30 -26 -45 -4 -16 -13
-28 -21 -28 -8 0 -14 -7 -14 -15 0 -8 -9 -23 -20 -32 -11 -10 -20 -22 -20 -28
0 -6 -18 -36 -40 -65 -22 -29 -40 -59 -40 -66 0 -8 -9 -18 -20 -24 -11 -6 -20
-20 -20 -30 0 -11 -5 -20 -10 -20 -17 0 -35 -49 -23 -61 8 -8 15 -4 24 12 6
13 15 26 18 29 13 11 61 87 61 97 0 6 7 13 15 17 8 3 15 12 15 19 0 8 7 20 16
27 8 8 21 28 29 47 8 18 18 33 24 33 5 0 12 13 16 29 3 16 13 32 21 35 8 3 14
11 14 18 0 8 9 21 20 31 21 17 28 67 10 67 -5 0 -10 -7 -10 -15z"/>
<path d="M12173 9290 c-4 -15 -14 -20 -39 -20 -21 0 -37 -6 -40 -14 -3 -8 -14
-16 -25 -19 -10 -3 -19 -12 -19 -21 0 -13 -13 -16 -75 -16 -68 0 -75 -2 -75
-20 0 -16 7 -20 34 -20 19 0 37 6 39 13 4 10 6 10 6 0 1 -19 71 -17 71 2 0 9
9 15 24 15 13 0 34 8 47 19 13 10 38 21 54 25 17 3 37 8 45 10 8 2 14 9 13 15
-2 6 2 11 7 11 6 0 10 -6 10 -14 0 -21 32 -25 125 -17 8 0 15 8 15 16 0 12
-15 15 -72 17 -40 0 -81 1 -90 0 -12 -1 -18 5 -18 18 0 26 -30 26 -37 0z"/>
<path d="M4477 9175 c-15 -14 -27 -32 -27 -39 0 -7 -9 -21 -20 -31 -11 -10
-20 -27 -20 -38 0 -10 -17 -40 -37 -66 -21 -25 -44 -55 -51 -66 -57 -89 -77
-115 -88 -115 -7 0 -16 -10 -20 -22 -4 -13 -20 -36 -36 -53 -29 -29 -58 -85
-58 -110 0 -26 46 -2 70 37 14 22 35 50 46 62 12 11 30 37 41 57 10 20 26 43
34 51 34 36 95 114 106 137 7 14 22 40 33 56 22 33 40 72 40 84 0 5 7 14 15
21 15 13 21 60 7 60 -4 0 -20 -11 -35 -25z"/>
<path d="M4332 9163 c-45 -58 -72 -104 -72 -123 0 -10 -6 -25 -13 -32 -7 -7
-18 -25 -24 -40 -7 -16 -17 -28 -22 -28 -5 0 -15 -16 -21 -35 -6 -19 -16 -35
-21 -35 -5 0 -9 -9 -9 -20 0 -11 6 -20 13 -20 21 0 42 28 72 95 15 33 31 62
36 65 18 12 69 96 69 114 0 11 7 27 16 37 11 12 13 23 7 34 -8 14 -12 13 -31
-12z"/>
<path d="M15961 9108 c-1 -11 -9 -18 -21 -18 -11 0 -24 -8 -27 -17 -4 -10 -11
-22 -17 -26 -7 -5 -5 -7 4 -5 18 3 60 -36 60 -56 0 -8 6 -17 13 -19 10 -4 10
-6 0 -6 -9 -1 -13 -19 -13 -56 l0 -55 194 0 c185 0 194 -1 199 -20 4 -18 14
-20 73 -20 53 0 65 -3 56 -12 -21 -21 -13 -28 28 -28 33 0 40 3 40 19 0 11 -6
22 -12 25 -7 4 -2 4 11 2 13 -3 35 3 48 12 24 15 24 16 7 23 -11 4 -72 8 -136
8 -94 1 -118 4 -118 15 0 21 -29 24 -167 20 -71 -3 -138 -2 -150 1 -36 9 -30
48 12 76 34 23 46 49 24 49 -21 0 -89 55 -98 80 -7 17 -10 20 -10 8z"/>
<path d="M15737 8843 c-18 -17 -5 -33 28 -33 33 0 35 -2 35 -34 0 -24 -5 -36
-17 -39 -10 -3 59 -5 153 -6 164 -1 172 0 177 19 5 19 0 20 -134 20 -115 0
-139 3 -139 14 0 39 -79 84 -103 59z"/>
<path d="M12150 8720 c0 -11 5 -20 10 -20 6 0 10 -9 10 -20 0 -14 7 -20 24
-20 19 0 23 -4 19 -20 -3 -10 -14 -22 -24 -25 -10 -4 -19 -13 -19 -21 0 -8 -9
-14 -20 -14 -38 0 -24 -38 22 -60 54 -26 78 -26 78 0 0 12 7 20 16 20 12 0 15
9 13 40 -2 21 0 42 4 46 4 4 7 20 7 35 0 24 -5 28 -41 34 -23 4 -48 16 -57 26
-21 25 -42 24 -42 -1z"/>
<path d="M3854 8528 c-25 -30 -54 -82 -54 -99 0 -12 -47 -88 -62 -99 -3 -3
-10 -19 -14 -35 -4 -17 -15 -41 -26 -54 -10 -13 -18 -32 -18 -41 0 -10 -7 -23
-15 -30 -17 -14 -65 -115 -65 -137 0 -7 -6 -16 -14 -19 -8 -3 -17 -17 -20 -32
-4 -15 -14 -41 -23 -58 -20 -38 -12 -64 21 -64 28 0 36 16 36 75 0 25 6 47 15
55 8 6 17 21 20 31 4 11 22 43 41 72 19 28 34 64 34 80 0 15 7 30 15 33 8 3
17 16 21 27 4 12 15 33 25 46 11 13 19 32 19 42 0 10 6 22 14 26 15 9 66 101
66 119 0 6 7 17 15 24 19 15 20 60 2 60 -8 0 -22 -10 -33 -22z"/>
<path d="M8353 8324 c-6 -15 12 -37 38 -46 4 -2 11 -15 14 -30 6 -24 3 -29
-19 -38 -31 -11 -32 -21 -6 -45 11 -10 22 -26 25 -36 5 -16 16 -19 62 -19 47
0 56 -3 60 -21 5 -18 12 -20 57 -17 46 3 51 1 54 -19 5 -35 52 -32 52 2 0 21
-5 25 -30 25 -23 0 -30 4 -30 20 0 16 -7 20 -32 20 -26 0 -41 9 -68 40 -39 44
-47 47 -64 24 -11 -14 -13 -14 -25 0 -11 13 -11 17 3 22 20 8 21 34 1 34 -8 0
-17 11 -21 25 -3 14 -9 25 -13 25 -4 0 -13 11 -19 25 -13 29 -30 32 -39 9z"/>
<path d="M8297 8222 c-16 -9 -31 -29 -34 -44 -7 -34 -43 -40 -43 -8 0 13 -7
20 -20 20 -13 0 -20 7 -20 20 0 13 -7 20 -20 20 -13 0 -20 -7 -20 -20 0 -13 7
-20 20 -20 13 0 20 -7 20 -20 0 -11 6 -20 14 -20 8 0 17 -9 21 -19 3 -10 15
-21 25 -24 11 -3 20 -12 20 -21 0 -9 6 -16 14 -16 8 0 18 -9 21 -20 7 -21 30
-27 40 -10 9 15 25 2 25 -20 0 -13 9 -22 25 -26 14 -3 25 -12 25 -20 0 -24 38
-16 43 9 l4 22 2 -22 c1 -16 7 -23 21 -23 13 0 20 -7 20 -20 0 -18 7 -20 66
-20 56 0 65 2 60 16 -3 9 -6 20 -6 25 0 5 -17 6 -40 3 -33 -5 -41 -3 -47 12
-9 24 -23 34 -50 34 -14 0 -23 6 -23 15 0 8 -9 15 -20 15 -11 0 -20 -5 -20
-11 0 -5 -4 -7 -10 -4 -5 3 -10 19 -10 36 0 17 -5 29 -13 29 -7 0 -20 9 -30
20 -9 11 -24 20 -32 20 -9 0 -15 9 -15 23 0 38 12 67 26 67 8 0 14 5 14 10 0
15 -21 12 -53 -8z"/>
<path d="M5816 8124 c-6 -15 15 -17 170 -18 61 -1 87 -5 100 -17 16 -14 49
-18 185 -21 140 -3 170 -6 194 -22 25 -16 34 -17 81 -7 45 10 93 40 68 42 -5
0 -72 2 -149 4 -143 4 -202 11 -220 25 -5 4 -73 10 -150 13 -77 3 -170 8 -207
10 -50 3 -68 1 -72 -9z"/>
<path d="M4774 8046 c-14 -35 2 -43 100 -51 53 -4 123 -4 155 0 51 6 58 9 54
25 -6 23 -29 33 -52 21 -10 -6 -23 -6 -32 0 -7 5 -27 9 -44 9 -16 1 -63 3
-102 6 -61 5 -74 3 -79 -10z"/>
<path d="M5880 7961 c0 -4 38 -11 84 -13 47 -3 94 -12 107 -20 17 -11 59 -16
142 -17 84 -2 132 -8 170 -21 49 -18 91 -19 231 -11 5 1 6 4 3 7 -3 4 -37 8
-74 11 -40 2 -72 9 -78 17 -7 9 -48 15 -125 20 -138 7 -127 7 -170 0 -27 -4
-41 -1 -59 15 -21 18 -37 21 -128 21 -56 0 -103 -4 -103 -9z"/>
<path d="M4175 7941 c-41 -4 -81 -14 -95 -24 -14 -9 -37 -17 -53 -17 -33 0
-120 -47 -111 -61 8 -14 56 -11 74 6 9 8 43 17 75 21 33 4 67 12 75 19 8 7 46
15 83 18 79 7 93 13 76 33 -12 15 -13 15 -124 5z"/>
<path d="M6785 7880 c3 -5 15 -10 26 -10 11 0 22 -7 25 -15 4 -10 20 -15 45
-15 28 0 42 -6 51 -20 10 -15 24 -20 56 -20 29 0 53 -7 69 -20 14 -11 40 -20
58 -20 19 0 39 -8 49 -19 11 -12 35 -20 71 -23 31 -3 63 -12 73 -21 19 -17 52
-23 52 -9 -1 23 -30 39 -78 44 -29 3 -60 12 -70 22 -10 9 -30 16 -45 16 -30 0
-77 19 -77 32 0 4 -17 8 -39 8 -23 0 -48 8 -64 20 -14 11 -37 20 -51 20 -15 0
-44 9 -66 20 -41 21 -96 27 -85 10z"/>
<path d="M12210 7821 c0 -10 -9 -21 -20 -24 -12 -3 -20 -14 -20 -25 0 -26 -37
-18 -45 9 -4 11 -16 19 -29 19 -13 0 -38 3 -55 6 -26 6 -31 3 -31 -13 0 -11 9
-29 20 -41 l21 -22 -38 0 c-31 1 -35 3 -20 11 23 13 22 29 -3 29 -13 0 -20 -7
-20 -20 0 -21 -7 -23 -52 -20 -22 1 -28 -3 -28 -19 0 -12 -6 -21 -14 -21 -7 0
-16 -9 -19 -20 -4 -16 0 -20 19 -20 17 0 24 6 24 19 0 42 57 28 108 -27 17
-18 35 -32 41 -32 6 0 13 23 17 50 8 57 32 69 53 24 11 -25 12 -25 36 -10 13
9 40 16 60 16 22 0 38 6 41 15 4 9 19 15 39 15 19 0 36 3 38 8 3 4 -23 7 -56
7 l-62 0 -3 33 c-3 27 0 32 17 32 14 0 21 6 21 20 0 13 -7 20 -20 20 -13 0
-20 -7 -20 -19z"/>
<path d="M4824 7773 c-31 -3 -43 -9 -47 -24 -5 -18 2 -19 238 -19 205 0 245 2
255 15 7 9 10 19 6 22 -7 8 -389 13 -452 6z"/>
<path d="M6093 7773 c-40 -2 -73 -7 -73 -11 0 -27 31 -32 206 -32 177 0 182 1
177 20 -4 15 -14 20 -42 20 -20 0 -72 2 -116 4 -44 2 -113 1 -152 -1z"/>
<path d="M13038 7762 c-14 -2 -32 -9 -38 -17 -16 -19 97 -28 275 -22 77 3 157
6 178 6 28 1 37 5 37 19 0 16 -17 17 -213 17 -116 0 -224 -1 -239 -3z"/>
<path d="M3519 7639 c-13 -13 -39 -16 -147 -15 -71 1 -134 -3 -138 -7 -5 -4
-3 -16 2 -25 9 -14 30 -18 105 -20 112 -4 159 3 159 23 0 18 -14 17 241 19
161 1 210 4 223 15 32 27 -6 32 -219 29 -176 -3 -212 -6 -226 -19z"/>
<path d="M13825 7652 c-17 -4 -31 -15 -33 -25 -3 -15 6 -17 72 -17 63 0 80 -4
96 -20 16 -16 33 -20 85 -20 36 0 65 -4 65 -9 0 -17 32 -21 53 -6 21 15 21 15
-9 15 -19 0 -41 10 -58 25 -19 18 -38 25 -66 25 -21 0 -45 7 -53 15 -17 17
-108 27 -152 17z"/>
<path d="M14680 7484 c0 -9 -9 -18 -20 -21 -11 -3 -20 -14 -20 -24 0 -17 -9
-19 -94 -19 l-94 0 1 -40 1 -40 50 0 c28 0 68 5 89 11 30 8 39 16 44 40 4 22
11 29 29 29 22 0 24 -4 24 -54 0 -40 4 -55 16 -60 27 -10 31 -7 26 25 -3 21 2
40 16 58 20 28 20 28 1 44 -10 9 -19 28 -19 42 0 20 -5 25 -25 25 -16 0 -25
-6 -25 -16z"/>
<path d="M15190 7480 c0 -16 7 -20 30 -20 17 0 30 -4 30 -10 0 -5 -5 -10 -11
-10 -6 0 -9 -19 -7 -47 3 -45 5 -48 33 -51 16 -2 35 -11 41 -20 10 -14 37 -17
175 -20 182 -4 209 0 209 27 0 18 -11 19 -158 23 -97 2 -164 7 -173 14 -8 6
-31 14 -51 18 l-38 7 0 54 0 55 -40 0 c-33 0 -40 -3 -40 -20z"/>
<path d="M4664 7250 c0 -20 7 -20 281 -20 217 1 284 4 298 14 9 7 17 16 17 20
0 3 -134 6 -298 6 -291 0 -298 0 -298 -20z"/>
<path d="M3347 7033 c-4 -3 -7 -15 -7 -25 0 -15 8 -18 42 -18 39 0 40 -1 22
-14 -10 -8 -15 -18 -11 -23 5 -4 106 -8 225 -8 l217 0 3 23 3 22 -208 1 c-114
1 -200 3 -190 6 9 2 17 13 17 24 0 16 -7 19 -53 19 -30 0 -57 -3 -60 -7z"/>
<path d="M5190 6908 c-21 -9 -310 -19 -527 -18 -40 0 -53 -4 -53 -15 0 -21
-28 -32 -84 -33 -40 0 -49 3 -53 19 -5 16 -15 19 -63 19 -50 0 -58 -3 -63 -21
-5 -19 -10 -20 -49 -13 -24 4 -91 7 -150 5 -97 -1 -110 1 -125 19 -22 25 -37
25 -60 1 -10 -11 -29 -22 -43 -26 -14 -3 -31 -15 -38 -26 -12 -19 -8 -19 207
-19 203 0 220 1 244 20 18 14 40 20 79 20 42 0 56 -4 66 -20 10 -16 23 -20 73
-20 52 0 62 3 66 20 5 20 14 20 418 20 363 0 414 2 426 16 18 22 -3 34 -62 34
-25 0 -54 7 -65 15 -22 17 -107 19 -144 3z"/>
<path d="M5500 6905 c0 -8 10 -26 22 -40 l22 -25 217 0 c208 0 217 -1 222 -20
5 -19 14 -20 121 -20 107 0 116 2 116 19 0 20 -49 31 -140 31 -32 0 -55 6 -73
20 -23 19 -40 20 -230 20 -170 0 -207 3 -217 15 -16 20 -60 20 -60 0z"/>
<path d="M3705 6829 c-16 -6 -50 -7 -74 -4 -48 5 -94 -19 -106 -55 -5 -16 -15
-20 -51 -20 -24 0 -77 -8 -117 -19 -39 -10 -112 -22 -161 -25 -116 -8 -136
-14 -136 -37 0 -18 10 -19 164 -19 136 0 165 3 170 15 4 11 22 15 72 15 57 0
67 3 71 20 4 17 14 20 54 20 36 0 51 5 62 20 11 16 27 20 103 22 83 3 89 4 92
25 3 17 -3 24 -25 28 -15 4 -41 11 -57 16 -16 5 -29 9 -30 8 -1 0 -14 -5 -31
-10z"/>
<path d="M11599 6723 c-10 -2 -19 -13 -22 -23 -5 -19 4 -20 358 -19 346 1 362
2 358 20 -3 10 -17 20 -32 23 -33 6 -640 5 -662 -1z"/>
<path d="M4593 6705 c-3 -9 -3 -18 -1 -21 3 -2 159 -3 348 -2 327 3 343 4 326
21 -16 15 -46 17 -342 17 -283 0 -325 -2 -331 -15z"/>
<path d="M3630 6660 c-11 -20 -8 -20 300 -20 303 0 310 0 310 20 0 20 -7 20
-300 20 -289 0 -300 -1 -310 -20z"/>
<path d="M3605 6520 c-22 -11 -43 -19 -47 -20 -5 0 -16 -8 -27 -19 -25 -25
-69 -17 -83 15 -14 29 -32 31 -51 4 -8 -11 -17 -17 -21 -13 -4 4 -37 8 -74 9
-50 2 -72 -2 -85 -14 -17 -15 -124 -31 -304 -46 -18 -2 -44 -11 -58 -20 -22
-14 -135 -33 -217 -36 -5 0 -8 -9 -8 -20 0 -19 7 -20 219 -20 210 0 219 1 224
20 5 19 14 20 136 20 109 0 133 3 138 15 5 14 7 14 23 0 16 -14 19 -14 33 -1
12 13 62 16 297 18 255 3 283 5 294 21 12 16 53 17 613 17 501 0 602 2 619 14
10 8 15 18 11 23 -7 6 -284 15 -692 21 -5 0 -70 -2 -142 -5 -74 -2 -164 0
-202 6 -80 13 -211 -3 -211 -25 0 -20 -11 -22 -78 -13 -37 5 -74 17 -89 29
-32 25 -48 25 -80 0 -37 -29 -59 -25 -72 10 -12 35 -14 35 -66 10z"/>
<path d="M5456 6490 c-90 -5 -98 -6 -81 -20 14 -12 57 -16 207 -18 183 -3 188
-3 188 17 0 11 -8 22 -17 25 -20 5 -146 4 -297 -4z"/>
<path d="M9245 6394 c-8 -9 -15 -22 -15 -30 0 -8 -9 -14 -20 -14 -20 0 -21 -5
-18 -97 l3 -98 33 -3 c19 -2 32 1 32 8 0 7 11 25 25 42 l25 30 0 -41 c0 -34 3
-41 20 -41 18 0 20 7 20 73 0 61 -3 77 -20 92 -11 10 -20 28 -20 39 0 42 -39
66 -65 40z"/>
<path d="M11787 6350 c-5 -20 -1 -20 245 -20 232 0 249 1 246 18 -3 16 -24 17
-244 20 -235 2 -242 2 -247 -18z"/>
<path d="M2730 6293 c1 -18 26 -40 43 -37 27 4 57 -30 50 -56 -7 -28 -40 -40
-75 -28 -21 8 -40 5 -80 -10 -77 -29 -140 -41 -258 -48 -58 -3 -118 -12 -134
-20 -46 -22 -75 -18 -82 11 -3 14 -10 25 -15 25 -14 0 -29 -37 -29 -74 0 -22
-5 -36 -15 -38 -10 -2 -12 -7 -5 -18 12 -20 321 -22 327 -2 3 6 -6 16 -19 21
-17 7 -18 10 -5 10 10 1 17 9 17 21 0 19 7 20 219 20 182 0 222 3 235 15 19
19 93 20 112 1 12 -12 111 -15 636 -16 537 0 624 -3 631 -15 12 -22 355 -22
400 0 19 9 70 16 126 17 90 3 94 4 77 21 -19 18 -9 18 -826 19 -273 0 -588 16
-617 30 -12 6 -41 8 -64 5 -24 -3 -37 -2 -30 2 7 5 11 17 9 27 -2 14 -13 18
-48 19 -25 1 -53 5 -62 9 -12 5 -21 0 -33 -18 -18 -28 -53 -34 -73 -14 -19 19
-15 66 8 78 11 6 20 20 20 30 0 19 -8 20 -168 20 -92 0 -182 -4 -200 -9 -20
-6 -32 -6 -32 0 0 5 -9 9 -20 9 -11 0 -20 -3 -20 -7z"/>
<path d="M4077 6280 c3 -10 13 -21 22 -23 33 -8 630 -2 638 6 4 5 -1 15 -11
23 -16 11 -79 14 -337 14 -310 0 -317 0 -312 -20z"/>
<path d="M15513 6223 c-119 -4 -144 -11 -104 -33 23 -12 801 -14 801 -2 -1 32
-17 34 -296 37 -154 1 -334 0 -401 -2z"/>
<path d="M11646 6128 l-16 -23 195 -3 c107 -1 282 -1 389 0 192 3 194 3 180
23 -14 19 -28 20 -374 23 l-358 3 -16 -23z"/>
<path d="M4942 6053 c3 -16 23 -18 215 -21 207 -2 212 -2 210 18 -1 19 -8 20
-215 20 -198 0 -213 -1 -210 -17z"/>
<path d="M11421 5941 c-25 -3 -46 -12 -49 -18 -3 -10 34 -13 161 -13 139 0
166 2 171 15 5 14 30 15 176 13 93 -2 170 0 170 5 0 8 -564 7 -629 -2z"/>
<path d="M1813 5842 c-13 -2 -23 -8 -23 -13 0 -18 74 -78 105 -85 16 -3 37
-12 45 -19 19 -16 91 -27 108 -16 11 6 11 10 0 18 -7 6 -22 12 -32 14 -19 4
-29 18 -40 53 -6 16 -13 18 -53 12 -41 -5 -50 -3 -68 17 -13 15 -28 22 -42 19z"/>
<path d="M7802 5623 c3 -15 17 -19 73 -23 70 -5 115 -27 115 -56 0 -15 23 -24
65 -24 18 0 38 -7 45 -15 9 -11 32 -15 82 -15 52 0 70 4 74 15 4 8 19 15 35
15 23 0 27 3 22 18 -10 27 -24 32 -100 32 -50 0 -76 5 -86 15 -9 8 -41 18 -72
21 -33 4 -59 13 -62 20 -4 11 -29 14 -100 14 -85 0 -94 -2 -91 -17z"/>
<path d="M1762 5561 c-11 -6 -10 -11 3 -25 15 -15 47 -16 290 -16 251 1 273 3
270 18 -2 9 -4 20 -4 25 -1 10 -543 9 -559 -2z"/>
<path d="M11493 5554 c-7 -3 -13 -12 -13 -20 0 -12 38 -14 226 -14 176 0 225
3 221 13 -2 7 -26 13 -63 14 -32 1 -126 5 -209 8 -82 2 -156 2 -162 -1z"/>
<path d="M5492 5539 c-12 -4 -29 -6 -37 -3 -8 4 -35 3 -60 0 l-45 -7 17 -24
c17 -23 25 -24 109 -25 127 0 347 -19 358 -30 6 -6 40 -10 76 -10 45 0 78 -6
103 -19 30 -15 61 -19 148 -20 61 -1 113 -2 117 -2 23 -4 42 2 37 11 -3 6 -23
10 -44 10 -21 0 -44 6 -50 13 -8 10 -52 16 -148 21 -98 4 -141 10 -148 20 -7
10 -59 17 -176 24 -133 8 -172 14 -200 30 -25 15 -40 18 -57 11z"/>
<path d="M2399 5532 c-51 -3 -56 -5 -52 -22 5 -19 15 -20 199 -20 173 0 194
-2 203 -17 9 -16 31 -18 208 -21 120 -1 207 -7 220 -14 12 -6 29 -8 38 -4 9 3
23 -1 31 -9 23 -22 373 -22 370 0 -1 8 -4 17 -7 20 -3 3 -95 5 -204 6 -180 0
-198 2 -202 18 -4 16 -24 19 -200 24 -148 5 -200 11 -212 21 -12 11 -56 15
-176 18 -88 1 -185 2 -216 0z"/>
<path d="M3758 5413 c-27 -2 -48 -8 -48 -13 0 -23 48 -30 202 -29 90 0 157 3
151 6 -7 2 -13 10 -13 17 0 22 -137 31 -292 19z"/>
<path d="M10890 5390 c0 -20 7 -20 275 -20 268 0 275 0 275 20 0 20 -7 20
-275 20 -268 0 -275 0 -275 -20z"/>
<path d="M6784 5368 c-12 -20 104 -47 199 -47 63 0 85 -4 113 -22 l35 -21 23
21 c18 17 35 21 94 21 75 0 80 3 58 33 -16 21 -54 22 -80 2 -27 -21 -262 -21
-285 -1 -18 15 -149 27 -157 14z"/>
<path d="M4647 5333 c-10 -3 -17 -12 -15 -21 3 -15 23 -17 166 -20 153 -2 162
-1 162 16 0 15 -10 21 -37 26 -43 7 -248 6 -276 -1z"/>
<path d="M5547 5251 c-18 -7 -18 -8 -1 -21 13 -11 55 -16 175 -18 153 -4 157
-3 152 16 -3 12 -16 22 -35 26 -42 8 -269 6 -291 -3z"/>
<path d="M7629 5040 c21 -18 39 -20 222 -20 192 0 199 1 199 20 0 19 -7 20
-222 20 l-223 -1 24 -19z"/>
<path d="M9070 5000 c0 -20 7 -20 435 -20 427 0 435 0 435 20 0 19 -8 20 -435
20 -428 0 -435 0 -435 -20z"/>
<path d="M9232 4543 c3 -17 22 -18 228 -18 206 0 225 1 228 18 3 16 -13 17
-228 17 -215 0 -231 -1 -228 -17z"/>
</g>
</svg>
